<?xml version="1.0" standalone="no"?>
<!DOCTYPE svg PUBLIC "-//W3C//DTD SVG 20010904//EN"
 "http://www.w3.org/TR/2001/REC-SVG-20010904/DTD/svg10.dtd">
<svg version="1.0" xmlns="http://www.w3.org/2000/svg"
 width="240.000000pt" height="240.000000pt" viewBox="0 0 240.000000 240.000000"
 preserveAspectRatio="xMidYMid meet">
<metadata>
Created by potrace 1.14, written by Peter Selinger 2001-2017
</metadata>
<g transform="translate(0.000000,240.000000) scale(0.100000,-0.100000)"
fill="#000000" stroke="none">
<path d="M1320 2374 c-140 -61 -180 -191 -96 -313 52 -76 48 -107 -19 -143
-129 -69 -165 -170 -105 -288 24 -46 52 -58 85 -36 29 19 32 50 10 92 -8 16
-15 39 -15 50 0 27 34 71 63 80 34 10 87 53 108 88 33 55 18 151 -36 222 -45
59 -28 107 52 148 31 16 53 43 53 65 0 15 -37 51 -52 51 -7 -1 -29 -8 -48 -16z"/>
<path d="M460 2069 c-65 -26 -81 -110 -31 -160 38 -38 87 -39 129 -4 56 47 44
133 -22 160 -40 17 -42 17 -76 4z"/>
<path d="M1924 2071 c-30 -13 -64 -59 -64 -88 0 -32 26 -80 49 -93 65 -34 151
14 151 84 0 66 -78 121 -136 97z"/>
<path d="M742 1968 c-20 -20 -14 -48 22 -91 44 -55 81 -129 100 -204 14 -55
21 -113 13 -113 -2 0 -34 16 -72 35 -119 59 -196 60 -221 0 -51 -122 170 -464
482 -746 407 -369 684 -384 504 -28 l-41 81 53 -7 c75 -10 197 -57 262 -100
30 -20 84 -67 120 -105 66 -71 97 -85 124 -58 22 22 12 56 -33 111 -115 142
-313 241 -507 254 l-87 6 -80 96 c-89 108 -255 272 -347 344 l-62 48 -7 81
c-12 139 -57 258 -134 356 -41 52 -66 63 -89 40z"/>
<path d="M1510 1860 c-41 -41 -10 -110 49 -110 30 0 71 38 71 65 0 7 -9 24
-21 39 -25 32 -70 35 -99 6z"/>
<path d="M2101 1528 c-29 -14 -53 -36 -72 -67 -51 -85 -68 -101 -104 -101 -18
0 -57 11 -87 25 -65 30 -99 31 -154 5 -47 -23 -84 -72 -108 -144 -22 -63 -20
-83 8 -101 37 -25 71 -6 84 47 7 24 21 58 32 76 24 39 60 42 120 11 110 -57
218 -21 276 92 27 54 70 83 107 73 13 -3 46 -23 72 -45 51 -42 75 -48 99 -23
27 27 19 59 -25 99 -83 75 -168 93 -248 53z"/>
<path d="M1380 1533 c-54 -20 -81 -83 -56 -132 31 -60 99 -70 147 -22 48 48
31 128 -32 150 -35 12 -37 12 -59 4z"/>
<path d="M363 1073 l-40 -97 48 -79 c140 -225 354 -434 554 -539 l70 -37 115
49 c65 27 109 51 100 54 -8 3 -35 10 -59 16 -217 56 -500 298 -660 565 -23 39
-49 91 -59 118 -9 26 -20 47 -23 47 -3 0 -24 -44 -46 -97z"/>
<path d="M160 596 c0 -2 -16 -41 -35 -85 l-34 -81 58 -72 c64 -81 223 -235
264 -257 24 -13 34 -11 117 24 l91 38 -63 38 c-116 69 -248 200 -341 336 -36
53 -57 75 -57 59z"/>
</g>
</svg>
