<?xml version="1.0" encoding="utf-8"?>
<!-- Generator: Adobe Illustrator 26.0.2, SVG Export Plug-In . SVG Version: 6.00 Build 0)  -->
<svg version="1.1" xmlns="http://www.w3.org/2000/svg" xmlns:xlink="http://www.w3.org/1999/xlink" x="0px" y="0px"
	 viewBox="0 0 4325 3222.5" style="enable-background:new 0 0 4325 3222.5;" xml:space="preserve">
<style type="text/css">
	.st0{fill:#FFFFFF;}
	.st1{fill:#E30917;}
	.st2{fill:#8DAB4C;}
	.st3{clip-path:url(#SVGID_00000043440632392625848420000012299944612731345319_);fill:#562670;}
	.st4{clip-path:url(#SVGID_00000043440632392625848420000012299944612731345319_);fill:none;stroke:#562670;stroke-width:17.008;}
	.st5{clip-path:url(#SVGID_00000169558016090997570910000002498509896743906192_);fill:#FFFFFF;}
	.st6{fill:#353C52;}
	.st7{fill:#2F2874;}
	.st8{fill:#00578F;}
	.st9{fill:url(#path2_00000137820736694096364350000009017678056281251501_);}
	.st10{fill:url(#path4_00000104666574746592881710000001188126012053410977_);}
	.st11{fill:url(#path6_00000132790914903991419320000005051513284424328617_);}
	.st12{fill:url(#path8_00000181077982051103848050000009172796194002715056_);}
	.st13{fill:url(#path10_00000142898082798065962670000016569077100084965533_);}
	.st14{fill:url(#path12_00000073702174999730779050000009409083885250512062_);}
	.st15{fill:url(#path14_00000111899617390905250590000006336756588280548799_);}
	.st16{fill:url(#path16_00000007423843139112015860000010129259555856858513_);}
	.st17{fill:url(#path18_00000102529089405213521990000004148378058433322922_);}
	.st18{fill:url(#path20_00000025431958925315226750000016627426819385276081_);}
	.st19{fill:url(#path28_00000082332399898292567370000006060535310016212111_);}
	.st20{fill:url(#path30_00000103258910337057758750000013921749334628612520_);}
	.st21{fill:url(#path32_00000131350372919555694680000015729614315633602234_);}
	.st22{fill:url(#path34_00000136382199352541237540000013116112562414714538_);}
	.st23{fill:url(#path36_00000098940592637338154700000007332703545779906442_);}
	.st24{fill:url(#polygon38_00000121264003130585840640000003260751677626983078_);}
	.st25{fill:url(#path22_00000060730770661731330410000011620169602530400640_);}
	.st26{fill:url(#path24_00000103259384738331409250000006387503120146788252_);}
	.st27{fill:url(#path26_00000172442826600645003380000001056382518228329379_);}
	.st28{fill:url(#polygon40_00000043445621739061176260000010219756445814518939_);}
</style>
<g id="Layer_1">
	<path d="M1581.7,1682.1l130.9,226.8l-130.9,226.8l2.9,5c39.3,68.1,78.6,136.2,117.9,204.2l7.7,13.3h257l130.9-226.8h261.9l2.5-4.3
		c41.2-71.4,82.4-142.7,123.6-214.1l2.5-4.3l-2.5-4.3c-41.2-71.4-82.4-142.7-123.6-214.1l-2.5-4.3h-261.9l-130.9-226.8h-257
		L1581.7,1682.1z"/>
	<g>
		<polygon class="st0" points="1986.4,1861.9 1957.4,1861.9 1957.4,1823.9 1986.4,1823.9 1986.4,1832.3 1966.3,1832.3 
			1966.3,1839.1 1985.4,1839.1 1985.4,1846.6 1966.3,1846.6 1966.3,1853.2 1986.4,1853.2 1986.4,1861.9 		"/>
		<polygon class="st0" points="2020.9,1861.9 1992.6,1861.9 1992.6,1823.9 2002.4,1823.9 2002.4,1853 2020.9,1853 2020.9,1861.9 		
			"/>
		<polygon class="st0" points="2053.4,1861.9 2024.5,1861.9 2024.5,1823.9 2053.4,1823.9 2053.4,1832.3 2033.3,1832.3 
			2033.3,1839.1 2052.5,1839.1 2052.5,1846.6 2033.3,1846.6 2033.3,1853.2 2053.4,1853.2 2053.4,1861.9 		"/>
		<path class="st0" d="M2073.7,1832.2c-0.6,0-1.2,0-1.8,0.1c-0.6,0-1.1,0.2-1.6,0.3c-0.5,0.2-0.9,0.4-1.2,0.8
			c-0.3,0.3-0.5,0.8-0.5,1.3v14c0,0.6,0,1.1,0.1,1.7c0.1,0.5,0.2,1,0.4,1.5c0.2,0.4,0.5,0.8,0.8,1.1c0.3,0.3,0.8,0.4,1.3,0.4h17.8
			v8.6h-20.2c-1,0-2-0.2-3-0.5c-1-0.4-2-0.8-2.8-1.5s-1.6-1.4-2.2-2.3c-0.6-0.9-1-1.8-1.1-2.9v-23.6c0-1.1,0.3-2,0.9-2.9
			c0.6-0.9,1.3-1.6,2.2-2.3c0.9-0.6,1.9-1.1,2.9-1.5c1.1-0.4,2.1-0.6,3.1-0.6c1.1,0,2.2,0,3.3,0s2.2,0,3.3,0c2.2,0,4.4,0,6.7,0
			c2.2,0,4.5,0,6.8,0v8.3L2073.7,1832.2L2073.7,1832.2z"/>
		<polygon class="st0" points="2128.2,1832.3 2115.9,1832.3 2115.9,1861.9 2105.7,1861.9 2105.7,1832.3 2093.3,1832.3 
			2093.3,1823.9 2128.2,1823.9 2128.2,1832.3 		"/>
		<path class="st0" d="M2156.4,1835.6c0-0.9-0.1-1.6-0.2-2.1c-0.1-0.5-0.3-0.9-0.5-1.2c-0.2-0.3-0.5-0.5-0.9-0.6
			c-0.4-0.1-0.8-0.1-1.3-0.1h-11.5v8.3h11.5c0.7,0,1.2-0.1,1.6-0.3c0.4-0.2,0.7-0.5,0.9-0.9c0.2-0.4,0.3-0.8,0.4-1.4
			C2156.4,1836.8,2156.4,1836.2,2156.4,1835.6L2156.4,1835.6z M2154.6,1823.9c1.4,0.1,2.8,0.2,4.2,0.4c1.4,0.2,2.6,0.6,3.7,1.2
			c1.1,0.6,2,1.4,2.7,2.5c0.7,1.1,1,2.5,1,4.3v2.8c0,0.9,0,1.9-0.1,2.8c-0.1,1-0.3,1.8-0.7,2.6c-0.4,0.8-0.9,1.4-1.6,1.9
			c-0.7,0.5-1.7,0.7-2.9,0.7c0.7,0.4,1.4,0.8,2,1.2c0.7,0.5,1.2,1,1.7,1.6c0.5,0.6,0.8,1.3,0.9,1.9c0.1,0.6,0.2,1.3,0.2,2v12h-9.6
			v-10.6c-0.1-0.8-0.3-1.4-0.7-1.9c-0.4-0.5-0.8-0.8-1.3-1.1c-0.5-0.2-1.1-0.4-1.7-0.5c-0.6-0.1-1.3-0.1-2-0.1c-1.3,0-2.7,0-4,0
			c-1.3,0-2.6,0-4,0v14.1h-9.1v-38H2154.6L2154.6,1823.9z"/>
		<polygon class="st0" points="2182.2,1861.9 2172.4,1861.9 2172.4,1823.9 2182.2,1823.9 2182.2,1861.9 		"/>
		<path class="st0" d="M2202.4,1832.2c-0.6,0-1.2,0-1.8,0.1c-0.6,0-1.1,0.2-1.6,0.3c-0.5,0.2-0.9,0.4-1.2,0.8
			c-0.3,0.3-0.5,0.8-0.5,1.3v14c0,0.6,0,1.1,0.1,1.7c0.1,0.5,0.2,1,0.4,1.5c0.2,0.4,0.5,0.8,0.8,1.1c0.3,0.3,0.8,0.4,1.3,0.4h17.8
			v8.6h-20.2c-1,0-2-0.2-3-0.5c-1-0.4-2-0.8-2.8-1.5s-1.6-1.4-2.2-2.3c-0.6-0.9-1-1.8-1.1-2.9v-23.6c0-1.1,0.3-2,0.9-2.9
			c0.6-0.9,1.3-1.6,2.2-2.3c0.9-0.6,1.9-1.1,2.9-1.5c1.1-0.4,2.1-0.6,3.1-0.6c1.1,0,2.2,0,3.3,0c1.1,0,2.2,0,3.3,0
			c2.2,0,4.4,0,6.7,0c2.2,0,4.5,0,6.8,0v8.3L2202.4,1832.2L2202.4,1832.2z"/>
		<path class="st0" d="M1957.8,1927.6v-8.1h17.8c0.5,0,0.9-0.1,1.3-0.3c0.4-0.2,0.7-0.5,1-0.9c0.3-0.4,0.5-0.8,0.6-1.3
			c0.1-0.5,0.2-0.9,0.2-1.4c0-0.4-0.1-0.8-0.2-1.2c-0.1-0.4-0.3-0.8-0.5-1.1c-0.2-0.3-0.5-0.6-0.9-0.8c-0.4-0.2-0.8-0.3-1.3-0.3
			h-13.4c-0.8,0-1.5-0.2-2.2-0.5c-0.7-0.3-1.3-0.8-1.8-1.3c-0.5-0.6-0.9-1.2-1.2-2c-0.3-0.7-0.5-1.5-0.5-2.4V1895
			c0.1-1.3,0.5-2.2,1.2-3c0.7-0.7,1.5-1.3,2.4-1.6c1-0.4,2-0.6,3.1-0.7c1.1-0.1,2.2-0.1,3.3-0.1h19.9v7.5h-19.5
			c-0.7,0-1.1,0.3-1.3,1c-0.2,0.6-0.3,1.4-0.3,2.2c0,0.9,0,1.7,0.1,2.2c0.1,0.6,0.3,1,0.6,1.3c0.3,0.3,0.7,0.5,1.3,0.6
			c0.5,0.1,1.3,0.1,2.2,0.1h10.8c0.5,0,1.1,0,1.6,0c0.5,0,1,0.1,1.6,0.1c1.3,0.1,2.4,0.6,3.2,1.5c0.8,0.9,1.2,2,1.5,3.3
			c0.1,0.4,0.1,0.9,0.1,1.3c0,0.4,0,0.8,0,1.2v8.8c0,1.2-0.3,2.2-0.8,3c-0.5,0.9-1.3,1.6-2.3,2.1c-1,0.6-2.2,1-3.6,1.3
			c-1.4,0.3-3,0.4-4.7,0.4H1957.8L1957.8,1927.6z"/>
		<path class="st0" d="M2027.7,1889.6v27.5c0,1.7-0.4,3.3-1.1,4.8c-0.7,1.4-1.8,2.6-3.3,3.6c-1.7,1.1-3.4,1.7-5.2,1.9
			c-1.8,0.2-3.7,0.3-5.6,0.3h-1.7c-1.6,0-3,0-4.3-0.1c-1.2,0-2.4-0.1-3.4-0.3c-1-0.1-1.9-0.4-2.7-0.7c-0.8-0.3-1.6-0.7-2.3-1.2
			c-1.5-1-2.5-2.2-3.2-3.7c-0.6-1.5-1-3.1-1-4.7v-27.5h9.4v25.3c0,1.7,0.6,2.9,1.7,3.6c0.7,0.4,1.6,0.7,2.6,0.9
			c1,0.2,2.1,0.3,3.2,0.3c1.1,0,2.1-0.1,3.1-0.3c1-0.2,1.9-0.5,2.6-0.9c1.1-0.7,1.7-1.9,1.7-3.6v-25.3H2027.7L2027.7,1889.6z"/>
		<path class="st0" d="M2057.6,1902.1v-1.7c0-1.3-0.5-2.1-1.6-2.5c-1.1-0.4-3-0.6-5.9-0.6h-7.3v8.5h7.4c1.3,0,2.5-0.1,3.4-0.2
			c0.9-0.1,1.7-0.3,2.2-0.6c0.6-0.3,1-0.7,1.3-1.3C2057.5,1903.3,2057.6,1902.7,2057.6,1902.1L2057.6,1902.1z M2067.4,1898v6.6
			c0,1.9-0.4,3.6-1.1,5.1c-0.8,1.5-1.8,2.5-3.2,3.2c-0.9,0.5-2.1,0.8-3.4,0.9c-1.3,0.1-2.8,0.2-4.5,0.2h-12.4v13.6h-8.7v-38h16.3
			c6.2,0,10.6,0.6,13.1,1.8c1.3,0.5,2.3,1.3,3,2.4C2067,1894.9,2067.4,1896.3,2067.4,1898L2067.4,1898z"/>
		<polygon class="st0" points="2101.1,1927.6 2072.2,1927.6 2072.2,1889.6 2101.1,1889.6 2101.1,1898 2081,1898 2081,1904.7 
			2100.2,1904.7 2100.2,1912.3 2081,1912.3 2081,1918.9 2101.1,1918.9 2101.1,1927.6 		"/>
		<path class="st0" d="M2130.6,1901.3c0-0.9-0.1-1.6-0.2-2.1c-0.1-0.5-0.3-0.9-0.5-1.2c-0.2-0.3-0.5-0.5-0.9-0.6
			c-0.4-0.1-0.8-0.1-1.3-0.1h-11.5v8.3h11.5c0.7,0,1.2-0.1,1.6-0.3c0.4-0.2,0.7-0.5,0.9-0.9c0.2-0.4,0.3-0.8,0.4-1.4
			S2130.6,1901.9,2130.6,1901.3L2130.6,1901.3z M2128.7,1889.6c1.4,0.1,2.8,0.2,4.2,0.4c1.4,0.2,2.6,0.6,3.7,1.2
			c1.1,0.6,2,1.4,2.7,2.5c0.7,1.1,1,2.5,1,4.3v2.8c0,0.9,0,1.9-0.1,2.8c-0.1,1-0.3,1.8-0.7,2.6c-0.4,0.8-0.9,1.4-1.6,1.9
			c-0.7,0.5-1.7,0.7-2.9,0.7c0.7,0.4,1.4,0.8,2,1.2c0.7,0.5,1.2,1,1.7,1.6c0.5,0.6,0.8,1.3,0.9,1.9c0.1,0.6,0.2,1.3,0.2,2v12h-9.6
			V1917c-0.1-0.8-0.3-1.4-0.7-1.9c-0.4-0.5-0.8-0.8-1.3-1.1c-0.5-0.2-1.1-0.4-1.7-0.5c-0.6-0.1-1.3-0.1-2-0.1c-1.3,0-2.7,0-4,0
			c-1.3,0-2.6,0-4,0v14.1h-9.1v-38H2128.7L2128.7,1889.6z"/>
		<path class="st0" d="M2169.1,1915.1c0-0.7-0.1-1.2-0.3-1.5c-0.2-0.3-0.5-0.6-0.8-0.8c-0.9-0.6-2.2-0.9-4.1-0.9h-8.4v7.5h8.2
			c0.3,0,0.7,0,1.1,0c0.4,0,0.8,0,1.2-0.1c0.4,0,0.7-0.1,1.1-0.2c0.3-0.1,0.6-0.2,0.8-0.3c0.5-0.2,0.8-0.6,1-1.1
			c0.2-0.5,0.3-1,0.3-1.5V1915.1L2169.1,1915.1z M2168.6,1900.6c0-1.3-0.3-2.1-0.9-2.6c-0.4-0.3-1-0.5-1.6-0.6c-0.7,0-1.7-0.1-3-0.1
			h-7.6v7.8h7.6c1.1,0,2.1-0.1,2.9-0.2c0.8-0.1,1.4-0.3,1.7-0.6c0.6-0.6,0.9-1.6,0.9-2.9V1900.6L2168.6,1900.6z M2178.8,1919.9
			c0,3.1-1.4,5.3-4.1,6.6c-1.2,0.6-2.6,0.9-4.1,1c-1.5,0.1-3.4,0.2-5.5,0.2h-18.6v-38h15.9c2.9,0,5.4,0.1,7.4,0.4
			c2,0.3,3.6,0.8,4.6,1.4c2,1.2,3,3.3,3,6.3v4.7c0,0.8-0.1,1.6-0.4,2.2c-0.3,0.6-0.7,1.1-1.2,1.6c-0.5,0.4-1,0.9-1.6,1.2
			c-0.6,0.4-1.2,0.7-1.9,1c1.6,0.2,3,0.8,4.4,1.8c1.4,1.1,2,2.3,2,3.8V1919.9L2178.8,1919.9z"/>
		<polygon class="st0" points="2194.5,1927.6 2184.8,1927.6 2184.8,1889.6 2194.5,1889.6 2194.5,1927.6 		"/>
		<polygon class="st0" points="2200.8,1889.6 2209.8,1889.6 2209.8,1904 2211.2,1904 2223.9,1889.6 2236.5,1889.6 2221.1,1906.5 
			2221.1,1907.5 2237.7,1927.6 2224.5,1927.6 2210.8,1910.4 2209.7,1910.4 2209.7,1927.6 2200.8,1927.6 2200.8,1889.6 		"/>
		<polygon class="st0" points="2269.8,1927.6 2240.8,1927.6 2240.8,1889.6 2269.8,1889.6 2269.8,1898 2249.7,1898 2249.7,1904.7 
			2268.8,1904.7 2268.8,1912.3 2249.7,1912.3 2249.7,1918.9 2269.8,1918.9 2269.8,1927.6 		"/>
		<polygon class="st0" points="1987.1,1959.5 1973.9,1959.5 1973.9,1993.3 1969.5,1993.3 1969.5,1959.5 1956.2,1959.5 
			1956.2,1955.3 1987.1,1955.3 1987.1,1959.5 		"/>
		<path class="st0" d="M2044.4,1955.3l-12.2,38h-5.1l-10.3-32.7c-1.7,5.5-3.5,10.9-5.2,16.4c-1.8,5.4-3.5,10.9-5.2,16.4h-5.1
			l-11.3-38h5.3l8.8,32.6c0.8-2.8,1.7-5.5,2.5-8.2c0.9-2.7,1.7-5.4,2.6-8.1c0.9-2.7,1.7-5.4,2.6-8.1c0.9-2.7,1.7-5.4,2.5-8.2h5.8
			l10,32.6l9.4-32.6H2044.4L2044.4,1955.3z"/>
		<polygon class="st0" points="2052.9,1959.5 2052.9,1972.1 2073.9,1972.1 2073.9,1976.3 2052.9,1976.3 2052.9,1989.4 
			2074.8,1989.4 2074.8,1993.3 2048.5,1993.3 2048.5,1955.3 2074.8,1955.3 2074.8,1959.5 2052.9,1959.5 		"/>
		<polygon class="st0" points="2111.9,1955.3 2111.9,1993.3 2105.4,1993.3 2085.4,1961.5 2085.4,1993.3 2081.1,1993.3 
			2081.1,1955.3 2086.7,1955.3 2107.4,1988.1 2107.4,1955.3 2111.9,1955.3 		"/>
		<polygon class="st0" points="2148,1959.5 2134.8,1959.5 2134.8,1993.3 2130.4,1993.3 2130.4,1959.5 2117.1,1959.5 2117.1,1955.3 
			2148,1955.3 2148,1959.5 		"/>
		<polygon class="st0" points="2157.3,1959.5 2157.3,1972.1 2178.4,1972.1 2178.4,1976.3 2157.3,1976.3 2157.3,1989.4 
			2179.3,1989.4 2179.3,1993.3 2153,1993.3 2153,1955.3 2179.3,1955.3 2179.3,1959.5 2157.3,1959.5 		"/>
		<polygon class="st1" points="1874.7,1823.8 1874.7,1823.8 1839.5,1823.8 1791.6,1925.8 1874.7,1823.8 		"/>
		<polygon class="st1" points="1874.7,1823.8 1874.7,1823.8 1909.8,1823.8 1957.7,1721.9 1874.7,1823.8 		"/>
	</g>
</g>
<g id="Layer_2">
	<path class="st2" d="M370,996.7L501,1223.5L370,1450.3l2.9,5c39.3,68.1,78.6,136.2,117.9,204.2l7.7,13.3h257l130.9-226.8h261.9
		l2.5-4.3c41.2-71.4,82.4-142.7,123.6-214.1l2.5-4.3l-2.5-4.3c-41.2-71.4-82.4-142.7-123.6-214.1l-2.5-4.3H886.5L755.6,774.1h-257
		L370,996.7z"/>
	<g>
		<path class="st0" d="M607.3,1171.4v-3.8c1.2,0,2.5-0.1,3.7-0.3c1-0.2,2-0.7,2.7-1.5c0.5-0.6,0.9-1.3,1.1-2.1
			c0.1-0.4,0.2-0.7,0.2-1.1h4.7v28.6h-5.7v-19.6H607.3z"/>
		<path class="st0" d="M637.5,1254.8v-64.1h13.3v24.4h24.8v-24.4H689v64.1h-13.3v-28.6h-24.9v28.6H637.5z"/>
		<path class="st0" d="M747,1307.3H579.4v-167.6H747V1307.3z M589.4,1297.4h147.7v-147.8H589.4V1297.4z"/>
		<path class="st0" d="M778.1,1159.5h-4.2c-2.3,0-4.2,1.9-4.2,4.2c0,2.3,1.9,4.2,4.2,4.2h4.2c2.3,0,4.2-1.9,4.2-4.2
			C782.3,1161.4,780.4,1159.5,778.1,1159.5z"/>
		<path class="st0" d="M780,1148.3h16.5c2.3,0.4,4.5-1.2,4.9-3.5c0.4-2.3-1.2-4.5-3.5-4.9c-0.4-0.1-0.9-0.1-1.3,0H780
			c-2.3-0.4-4.5,1.2-4.9,3.5c-0.4,2.3,1.2,4.5,3.5,4.9C779.1,1148.4,779.6,1148.4,780,1148.3z"/>
		<path class="st0" d="M826.2,1167.9h7.3l-1.1,7.6c-0.3,2.7-1.2,3.5-3.9,3.5h-6.7c-2.7,0-3.6-1-3.2-3.9l3.2-22.9
			c0.4-2.9,1.6-3.9,4.2-3.9h18.1l1.2-8.5h-35.7c-2.3,0.4-3.9,2.5-3.5,4.9c0.3,1.8,1.7,3.2,3.5,3.5h3.2c-0.1,0.5-0.2,0.9-0.3,1.4
			l-1.3,9.7H791c-2.3,0-4.2,1.9-4.2,4.2s1.9,4.2,4.2,4.2h19.1l-1.5,9.8c0,0.5,0,1-0.1,1.5h-8.2c-2.3-0.4-4.5,1.2-4.9,3.5
			c-0.4,2.3,1.2,4.5,3.5,4.9c0.4,0.1,0.9,0.1,1.3,0h31c6.6,0,9.4-2.7,10.3-9.1l2.7-18.9h-17L826.2,1167.9z"/>
		<path class="st0" d="M897.8,1154.7c-0.8,5.8-3.4,8.5-8.8,9c5.6,0.7,6.9,4.2,6.2,9.5l-2,14.2h-9.6l2.1-15.4
			c0.4-2.8-0.5-4.2-3.4-4.2h-9.7l-2.7,19.6h-9.6l6.6-47.5h23.4c6.7,0,9.2,2.9,8.2,9.5L897.8,1154.7z M887.9,1155.7l0.5-3.5
			c0.4-2.7-0.5-3.8-3.1-3.8h-10.1l-1.6,11.2h10C886.5,1159.5,887.5,1158.4,887.9,1155.7z"/>
		<path class="st0" d="M919.8,1139.9h31.3l-1.2,8.5h-21.7l-1.6,11.2h15.6l-1.1,8.5h-15.6l-1.6,11.2h21.7l-1.1,8.5h-31.3
			L919.8,1139.9z"/>
		<path class="st0" d="M970.1,1139.9h31.3l-1.2,8.5h-21.7l-1.6,11.2h15.6l-1.2,8.5h-15.6l-1.6,11.2h21.7l-1.2,8.5h-31.3
			L970.1,1139.9z"/>
		<path class="st0" d="M1027.9,1152.2l-4.9,35.2h-9.7l5.3-37.7c0.9-6.6,4.5-9.8,11.3-9.8h13.3c6.8,0,9.4,3.3,8.5,9.8l-5.2,37.7h-9.6
			l4.9-35.2c0.4-2.9-0.5-3.9-3.2-3.9h-6.2C1029.5,1148.4,1028.4,1149.4,1027.9,1152.2z"/>
		<path class="st0" d="M862.2,1199.7h31.3l-1.2,8.5h-21.7l-1.5,11.1h15.6l-1.1,8.5h-15.6l-1.6,11.2h21.7l-1.1,8.5h-31.4
			L862.2,1199.7z"/>
		<path class="st0" d="M928.8,1247.3l2.6-19.6h-13.6l-2.7,19.6h-9.7l5.3-37.8c0.9-6.6,4.5-9.9,11.3-9.9h13.2c6.8,0,9.5,3.3,8.5,9.9
			l-5.2,37.7L928.8,1247.3z M924.3,1208.2c-2.7,0-3.9,1.1-4.2,3.9l-1,7.3h13.7l1-7.3c0.4-2.9-0.5-3.9-3.2-3.9H924.3z"/>
		<path class="st0" d="M1007.1,1199.7c6.8,0,9.5,3.3,8.5,9.9l-5.2,37.7h-9.6l4.9-35.2c0.4-2.9-0.5-3.9-3.2-3.9h-4
			c-2.7,0-3.9,1-4.2,3.9l-4.9,35.2h-9.7l4.9-35.2c0.4-2.9-0.5-3.9-3.1-3.9h-4c-2.7,0-3.9,1-4.2,3.9l-4.9,35.2h-9.7l5.2-37.8
			c0.9-6.6,4.5-9.9,11.3-9.9h6.2c6.2,0,8.8,2.1,8.8,7.1c1.5-5,4.6-7.1,10.9-7.1L1007.1,1199.7z"/>
		<path class="st0" d="M778.1,1298.8h-4.2c-2.3,0-4.2,1.9-4.2,4.2c0,2.3,1.9,4.2,4.2,4.2h4.2c2.3,0,4.2-1.9,4.2-4.2
			C782.3,1300.7,780.4,1298.8,778.1,1298.8z"/>
		<path class="st0" d="M814.1,1283.3c0-2.3-1.9-4.2-4.2-4.2h-16.5c-2.3-0.4-4.5,1.2-4.9,3.5c-0.4,2.3,1.2,4.5,3.5,4.9
			c0.4,0.1,0.9,0.1,1.3,0h16.5C812.2,1287.5,814.1,1285.6,814.1,1283.3z"/>
		<path class="st0" d="M790.5,1263.7c0-2.3-1.9-4.2-4.2-4.2H782c-2.3-0.4-4.5,1.2-4.9,3.5c-0.4,2.3,1.2,4.5,3.5,4.9
			c0.4,0.1,0.9,0.1,1.3,0h4.2C788.6,1267.9,790.4,1266.1,790.5,1263.7z"/>
		<path class="st0" d="M840.3,1259.5h-39.3c-2.3,0.4-3.9,2.5-3.5,4.9c0.3,1.8,1.7,3.2,3.5,3.5h0.7l0,0H822l-4.2,30.7h-16.2
			c-2.3,0-4.2,1.9-4.2,4.2c0,2.3,1.9,4.2,4.2,4.2h24.7l5.5-39.1h11.7l1.2-8.5H840.3z"/>
		<path class="st0" d="M890.8,1307.1c-6.2,0-8.8-2.1-8.9-7.1c-1.5,5-4.5,7.1-10.8,7.1H865c-6.8,0-9.5-3.3-8.5-9.8l5.3-37.7h9.7
			l-5,35.3c-0.3,2.8,0.6,3.9,3.3,3.9h4c2.7,0,3.8-1,4.2-3.9l5-35.3h9.5l-4.9,35.3c-0.4,2.8,0.5,3.9,3.2,3.9h3.9c2.8,0,4-1,4.2-3.9
			l5-35.3h9.6l-5.3,37.7c-1,6.6-4.5,9.8-11.3,9.8H890.8z"/>
		<path class="st0" d="M934,1259.5h31.3l-1.2,8.5h-21.7l-1.6,11.1h15.6l-1.1,8.5h-15.6l-1.6,11.2h21.7l-1.2,8.5h-31.3L934,1259.5z"
			/>
		<path class="st0" d="M991.8,1271.8l-4.9,35.2h-9.7l5.3-37.7c0.9-6.6,4.5-9.9,11.3-9.9h13.2c6.8,0,9.5,3.3,8.5,9.9l-5.2,37.7h-9.6
			l4.9-35.2c0.4-2.8-0.5-3.9-3.2-3.9h-6.2C993.4,1268,992.3,1269,991.8,1271.8z"/>
		<path class="st0" d="M1066,1268h-11.7l-5.5,39.1h-9.6l5.4-39.1h-11.7l1.2-8.5h33.1L1066,1268z"/>
		<path class="st0" d="M1084.8,1259.5h31.3l-1.2,8.5h-21.7l-1.6,11.1h15.6l-1.1,8.5h-15.6l-1.6,11.2h21.7l-1.1,8.5h-31.3
			L1084.8,1259.5z"/>
		<path class="st0" d="M797.4,1238.9h-23.9c-2.3,0-4.2,1.9-4.2,4.2s1.9,4.2,4.2,4.2h23.9c2.3,0,4.2-1.9,4.2-4.2
			S799.8,1238.9,797.4,1238.9L797.4,1238.9z"/>
		<path class="st0" d="M797.6,1219.3h-4.2c-2.3,0-4.2,1.9-4.2,4.2c0,2.3,1.9,4.2,4.2,4.2h4.2c2.3,0,4.2-1.9,4.2-4.2
			C801.9,1221.2,800,1219.3,797.6,1219.3z"/>
		<path class="st0" d="M840.8,1199.7H802c-2.3,0-4.2,1.9-4.2,4.2c0,2.3,1.9,4.2,4.2,4.2h20l-1.6,11.2h-10.2c-2.3,0-4.2,1.9-4.2,4.2
			c0,2.3,1.9,4.2,4.2,4.2h9.1l-1.6,11.2h-2.1c-2.3,0-4.2,1.9-4.2,4.2c0,2.3,1.9,4.2,4.2,4.2h10.6l5.5-39.1h11.7l1.2-8.5
			L840.8,1199.7z"/>
	</g>
	<g>
		<defs>
			<rect id="SVGID_1_" x="1582.6" y="532.6" width="906.9" height="898.7"/>
		</defs>
		<clipPath id="SVGID_00000155120329595306203940000008419223387638102428_">
			<use xlink:href="#SVGID_1_"  style="overflow:visible;"/>
		</clipPath>
		<path style="clip-path:url(#SVGID_00000155120329595306203940000008419223387638102428_);fill:#562670;" d="M1962.4,541.1
			c-82.1,0-164.2,0-246.4,0c-41.2,71.4-82.4,142.7-123.6,214.1c43.6,75.6,87.3,151.2,130.9,226.8c-43.6,75.6-87.3,151.2-130.9,226.8
			c41.2,71.4,82.4,142.7,123.6,214.1c82.4,0,164.8,0,247.2,0c43.6-75.6,87.3-151.2,130.9-226.8c87.3,0,174.6,0,261.9,0
			c41.2-71.4,82.4-142.7,123.6-214.1c-41.2-71.4-82.4-142.7-123.6-214.1c-87.3,0-174.6,0-261.9,0c-43.6-75.6-87.3-151.2-130.9-226.8
			C1962.9,541.1,1962.6,541.1,1962.4,541.1"/>
		
			<path style="clip-path:url(#SVGID_00000155120329595306203940000008419223387638102428_);fill:none;stroke:#562670;stroke-width:17.008;" d="
			M1962.4,541.1c-82.1,0-164.2,0-246.4,0c-41.2,71.4-82.4,142.7-123.6,214.1c43.6,75.6,87.3,151.2,130.9,226.8
			c-43.6,75.6-87.3,151.2-130.9,226.8c41.2,71.4,82.4,142.7,123.6,214.1c82.4,0,164.8,0,247.2,0c43.6-75.6,87.3-151.2,130.9-226.8
			c87.3,0,174.6,0,261.9,0c41.2-71.4,82.4-142.7,123.6-214.1c-41.2-71.4-82.4-142.7-123.6-214.1c-87.3,0-174.6,0-261.9,0
			c-43.6-75.6-87.3-151.2-130.9-226.8C1962.9,541.1,1962.6,541.1,1962.4,541.1z"/>
	</g>
	<g>
		<defs>
			<rect id="SVGID_00000086677873166294150500000011166598107096589220_" x="1674.5" y="845.8" width="801.1" height="271.8"/>
		</defs>
		<clipPath id="SVGID_00000177475986972278563930000016597267223200962992_">
			<use xlink:href="#SVGID_00000086677873166294150500000011166598107096589220_"  style="overflow:visible;"/>
		</clipPath>
		<path style="clip-path:url(#SVGID_00000177475986972278563930000016597267223200962992_);fill:#FFFFFF;" d="M1942.5,1007.2
			c-0.3-0.2-0.7-0.4-1.1-0.5c-2.5-0.9-5-0.7-7.1,0.3c-0.4,0.2-1,0.1-1.3-0.2l-46.5-46.5c-11.8-11.8-31-11.8-42.8,0
			c-0.9,0.9-0.9,2.4,0,3.3c0.9,0.9,2.4,0.9,3.3,0c10-10,26.2-10,36.1,0l46.5,46.5c0.3,0.3,0.4,0.9,0.2,1.3c-1,2.1-1.2,4.6-0.3,7.1
			c0.1,0.4,0.3,0.7,0.5,1.1c2.1,3.8,6.3,5.6,10.5,4.6c0.8-0.2,1.6-0.5,2.3-1c2.9-1.8,4.5-4.7,4.5-7.9
			C1947.4,1012,1945.7,1009,1942.5,1007.2 M1941.4,1018.6c-0.8,0.8-2,1.3-3.2,1.3c-1.2,0-2.3-0.5-3.2-1.3c-0.8-0.9-1.3-2-1.3-3.2
			c0-1.2,0.5-2.3,1.3-3.2c0.9-0.8,2-1.3,3.2-1.3c1.2,0,2.3,0.5,3.2,1.3c0.9,0.9,1.3,2,1.3,3.2
			C1942.8,1016.6,1942.3,1017.7,1941.4,1018.6"/>
		<path style="clip-path:url(#SVGID_00000177475986972278563930000016597267223200962992_);fill:#FFFFFF;" d="M1888.1,999.8
			c-0.9-0.9-2.4-0.9-3.3,0c-10,10-26.2,10-36.1,0l-46.5-46.5c-0.3-0.3-0.4-0.9-0.2-1.3c1.6-3.4,1-7.6-1.8-10.4
			c-3.6-3.6-9.4-3.6-13,0c-3.6,3.6-3.6,9.4,0,13c1.8,1.8,4.1,2.7,6.5,2.7c1.3,0,2.7-0.3,3.9-0.9c0.4-0.2,1-0.1,1.3,0.2l46.5,46.5
			c5.7,5.7,13.3,8.9,21.4,8.9c8.1,0,15.7-3.1,21.4-8.9C1889,1002.2,1889,1000.7,1888.1,999.8 M1790.4,951.3c-1.8-1.8-1.8-4.6,0-6.4
			c0.9-0.9,2-1.3,3.2-1.3c1.1,0,2.3,0.4,3.2,1.3c1.8,1.8,1.8,4.6,0,6.4C1795,953,1792.2,953,1790.4,951.3"/>
		<path style="clip-path:url(#SVGID_00000177475986972278563930000016597267223200962992_);fill:#FFFFFF;" d="M1980.4,1009.9
			c-0.4-0.2-0.8-0.4-1.2-0.5c-2.4-0.8-4.9-0.6-7,0.4c-0.4,0.2-1,0.1-1.3-0.2l-7.3-7.3c-2.4-2.4-5.6-3.7-8.9-3.7h-9.8
			c-2.1,0-4.1-0.8-5.6-2.3l-44.2-44.2c-16.3-16.3-42.9-16.5-59.4-0.3l-0.1,0l-0.3,0.3c-3.2,3.2-5.8,6.8-7.8,10.9
			c-0.5,1-0.3,2.3,0.6,3c1.2,0.9,2.9,0.5,3.6-0.8c1.7-3.5,4-6.6,6.7-9.4l0.1,0l0.3-0.3c14.6-14.6,38.4-14.6,53.1,0l44.2,44.2
			c2.4,2.4,5.5,3.7,8.9,3.7h9.8c2.1,0,4.1,0.8,5.6,2.3l7.4,7.4c0.3,0.3,0.4,0.9,0.2,1.3c-2,4.2-0.6,9.7,4.3,12.2
			c0.4,0.2,0.8,0.4,1.2,0.5c3.5,1,6.9,0.1,9.3-2.3C1986.9,1020.3,1986.1,1013,1980.4,1009.9 M1979.4,1021.2c-0.8,0.9-2,1.3-3.2,1.3
			c-1.2,0-2.3-0.5-3.2-1.3c-1.8-1.8-1.8-4.6,0-6.4c0.8-0.9,2-1.3,3.2-1.3c1.2,0,2.3,0.5,3.2,1.3
			C1981.1,1016.6,1981.1,1019.5,1979.4,1021.2"/>
		<path style="clip-path:url(#SVGID_00000177475986972278563930000016597267223200962992_);fill:#FFFFFF;" d="M1903.2,997.4
			c-1.1-0.4-2.4,0.1-2.9,1.2c-1.8,3.6-4.1,6.8-7,9.7l-0.2,0.2c-14.6,14.5-38.3,14.4-52.9-0.2l-44.2-44.2c-2.4-2.4-5.5-3.7-8.9-3.7
			h-9.8c-2.1,0-4.1-0.8-5.6-2.3l-7.3-7.4c-0.3-0.3-0.4-0.9-0.2-1.3c1-2.1,1.2-4.6,0.3-7.1c-0.1-0.4-0.3-0.7-0.5-1.1
			c-1.7-3.1-4.8-4.9-8.1-4.9c-2.5,0-4.8,1-6.5,2.7c-2.4,2.4-3.3,5.9-2.2,9.4c0.1,0.4,0.3,0.8,0.5,1.2c1.7,3.2,4.8,5.1,8.2,5.1
			c1.4,0,2.7-0.3,3.9-0.9c0.4-0.2,1-0.1,1.3,0.2l7.3,7.3c2.4,2.4,5.5,3.7,8.9,3.7h9.8c2.1,0,4.1,0.8,5.6,2.3l44.2,44.2
			c8.2,8.2,19,12.3,29.8,12.3c10.8,0,21.6-4.1,29.8-12.3l0.7-0.7v0c2.9-3,5.3-6.5,7.2-10.3C1905,999.4,1904.5,997.9,1903.2,997.4
			 M1752.5,948.6c-0.8-0.9-1.3-2-1.3-3.2s0.5-2.3,1.3-3.2c0.8-0.9,2-1.3,3.2-1.3c1.2,0,2.3,0.5,3.2,1.3c0.9,0.8,1.3,2,1.3,3.2
			s-0.5,2.3-1.3,3.2c-0.8,0.8-2,1.3-3.2,1.3C1754.5,949.9,1753.4,949.5,1752.5,948.6"/>
		<polygon style="clip-path:url(#SVGID_00000177475986972278563930000016597267223200962992_);fill:#FFFFFF;" points="2004.4,989.1 
			2049.8,989.1 2049.8,994.3 2027.5,994.3 2027.5,1045.6 2021.8,1045.6 2021.8,994.3 2004.4,994.3 		"/>
		<path style="clip-path:url(#SVGID_00000177475986972278563930000016597267223200962992_);fill:#FFFFFF;" d="M2043.6,1007.4h5.6
			l7.5,23.1c0.9,2.5,1.6,5.1,2.4,8.2c0.6-3.1,1.9-7,2.3-8.2l7.6-23.1h5.6l7.5,23.1c0.7,2,1.7,5.4,2.4,8.2c0.8-3.2,0.9-4.1,2.3-8.2
			l7.6-23.1h5.7l-12.9,38.2h-5.3l-7.9-24c-0.9-2.8-1.6-5.2-2.1-7.5c-0.6,2.1-1.2,4.3-2.2,7.5l-7.9,24h-5.4L2043.6,1007.4z"/>
		<path style="clip-path:url(#SVGID_00000177475986972278563930000016597267223200962992_);fill:#FFFFFF;" d="M2104.4,1026.5
			c0-11.9,7.4-20.1,18.3-20.1c10.3,0,17.4,7.3,17.4,18.2v2.7h-30.4c0.4,9.3,5.3,14.7,13.5,14.7c6.2,0,10.3-2.7,11.7-7.7h5.2
			c-2.1,8.1-8,12.4-17,12.4C2111.9,1046.6,2104.4,1038.5,2104.4,1026.5 M2109.8,1023.2h24.8c0-7.3-4.7-12.2-11.9-12.2
			C2115.5,1011,2110.8,1015.7,2109.8,1023.2"/>
		<polygon style="clip-path:url(#SVGID_00000177475986972278563930000016597267223200962992_);fill:#FFFFFF;" points="
			2200.5,1045.6 2200.5,1012 2192.8,1012 2192.8,1007.4 2200.5,1007.4 2200.5,995.3 2205.9,995.3 2205.9,1007.4 2213.5,1007.4 
			2213.5,1012 2205.9,1012 2205.9,1045.6 		"/>
		<path style="clip-path:url(#SVGID_00000177475986972278563930000016597267223200962992_);fill:#FFFFFF;" d="M2219.5,1026.5
			c0-11.9,7.4-20.1,18.3-20.1c10.3,0,17.4,7.3,17.4,18.2v2.7h-30.4c0.4,9.3,5.3,14.7,13.5,14.7c6.2,0,10.3-2.7,11.7-7.7h5.2
			c-2.1,8.1-8,12.4-17,12.4C2227,1046.6,2219.5,1038.5,2219.5,1026.5 M2225,1023.2h24.8c0-7.3-4.7-12.2-11.9-12.2
			C2230.7,1011,2225.9,1015.7,2225,1023.2"/>
		<path style="clip-path:url(#SVGID_00000177475986972278563930000016597267223200962992_);fill:#FFFFFF;" d="M2169.4,1006.4
			c-5.5,0-10.6,2.8-13.1,7.7l-0.1-0.7v-6h-5.5v38.2h5.5v-20c0-8.6,4.4-14.3,12.2-14.3c6.3,0,10.3,3.2,10.3,12.1v22.2h5.4v-23.4
			C2184.2,1012.6,2179.9,1006.4,2169.4,1006.4"/>
		<path style="clip-path:url(#SVGID_00000177475986972278563930000016597267223200962992_);fill:#FFFFFF;" d="M2004.4,976.4v-58.4
			h22.6c14.2,0,22.3,6.9,22.3,19c0,7.6-3.2,13-9.7,16.3l10.3,23.2h-14l-8.8-20.5h-9.9v20.5H2004.4z M2017.2,944.7h9.7
			c5.6,0,8.8-2.8,8.8-7.8c0-4.9-3.1-7.6-8.8-7.6h-9.8V944.7z"/>
		<path style="clip-path:url(#SVGID_00000177475986972278563930000016597267223200962992_);fill:#FFFFFF;" d="M2076.1,935.7
			c12.6,0,21.7,8.4,21.7,20.9c0,12.5-9.2,20.8-21.7,20.8c-12.6,0-21.8-8.3-21.8-20.8C2054.3,944,2063.5,935.7,2076.1,935.7
			 M2076.1,966.4c5.6,0,9.5-4,9.5-10c0-5.9-3.9-9.9-9.5-9.9c-5.7,0-9.6,4-9.6,9.9C2066.6,962.4,2070.4,966.4,2076.1,966.4"/>
		<path style="clip-path:url(#SVGID_00000177475986972278563930000016597267223200962992_);fill:#FFFFFF;" d="M2179,935.7
			c12.6,0,21.7,8.4,21.7,20.9c0,12.5-9.2,20.8-21.7,20.8c-12.6,0-21.8-8.3-21.8-20.8C2157.2,944,2166.4,935.7,2179,935.7
			 M2179,966.4c5.6,0,9.5-4,9.5-10c0-5.9-3.9-9.9-9.5-9.9c-5.7,0-9.6,4-9.6,9.9C2169.5,962.4,2173.3,966.4,2179,966.4"/>
		<polygon style="clip-path:url(#SVGID_00000177475986972278563930000016597267223200962992_);fill:#FFFFFF;" points="2199.6,917.9 
			2245.6,917.9 2245.6,929.8 2229,929.8 2229,976.4 2216.2,976.4 2216.2,929.8 2199.6,929.8 		"/>
		<path style="clip-path:url(#SVGID_00000177475986972278563930000016597267223200962992_);fill:#FFFFFF;" d="M2244.5,956.5
			c0-12.3,8.3-20.9,20.2-20.9c12.4,0,20.1,8.1,20.1,21v3.1l-28.7,0.2c0.7,5.2,3.6,7.7,9,7.7c4.6,0,7.8-1.7,8.7-4.5h11.1
			c-1.4,8.8-9.2,14.4-20.1,14.4C2253,977.4,2244.5,968.7,2244.5,956.5 M2256.3,952.3h16.4c0-4.2-3.1-6.9-8-6.9
			C2260,945.5,2257.3,947.6,2256.3,952.3"/>
		<path style="clip-path:url(#SVGID_00000177475986972278563930000016597267223200962992_);fill:#FFFFFF;" d="M2311.5,935.6
			c-11.3,0-18.6,5.8-18.6,14.8h10.1c0-3.5,2.8-5.5,7.9-5.5c4.3,0,6.7,2.1,6.7,5.9v0.6l-11.1,0.9c-9.5,0.7-14.6,5.2-14.6,12.5
			c0,7.7,5.2,12.6,13.6,12.6c5.6,0,10.6-2.3,12.2-5.7v4.7h11.8v-23.1C2329.5,942,2323,935.6,2311.5,935.6 M2309.8,968.4
			c-3.7,0-5.5-1.3-5.5-4.2c0-2.5,1.9-3.7,7.2-4.2l6.2-0.6v2.1C2317.7,966.1,2314.5,968.4,2309.8,968.4"/>
		<path style="clip-path:url(#SVGID_00000177475986972278563930000016597267223200962992_);fill:#FFFFFF;" d="M2388.2,935.6
			c-5.7,0-10.3,2.8-12.4,6.9c-2.3-4.2-6.1-6.9-12-6.9c-5.7,0-9.6,2.6-11.5,5.4v-4.1h-12.2v39.5h12.2v-21.2c0-6.6,3.6-8.5,7-8.5
			c3.9,0,6.4,2.4,6.4,7.3v22.4h12.2v-21.2c0-6.7,3.5-8.6,7-8.6c3.9,0,6.5,2.4,6.5,7.3v22.4h12.2v-25.8
			C2403.5,941.5,2398.4,935.6,2388.2,935.6"/>
		<path style="clip-path:url(#SVGID_00000177475986972278563930000016597267223200962992_);fill:#FFFFFF;" d="M2132.3,935.5
			c-5.7,0-10.9,2.4-13.3,5.9v-24.9h-12.2v59.8h12.2v-4.9c2.2,3.6,6.9,6,12.3,6c11.2,0,19-8.1,19-20.4
			C2150.4,944.1,2143.3,935.5,2132.3,935.5 M2128.7,966.2c-5.7,0-9.6-3.9-9.6-9.9c0-5.9,3.9-9.9,9.6-9.9c5.8,0,9.4,4,9.4,9.9
			C2138.1,962.2,2134.5,966.2,2128.7,966.2"/>
		<path style="clip-path:url(#SVGID_00000177475986972278563930000016597267223200962992_);fill:#FFFFFF;" d="M1929,1032.6l-3.8-3.8
			c-3.7-3.7-5.5-8.6-5.4-13.5l-8.2-8.2c-2.5,4.6-5.7,8.9-9.7,12.7c-20.7,20-53.9,19-74.3-1.3l-0.4-0.4l0,0l-7.9-7.8l0,0v0
			l-19.4-19.4c1,7.2,3.1,14,6.2,20.2c1.4,2.9,1,6.3-1,8.8h0l-7.1,8.6c-0.2,0.2-0.3,0.4-0.5,0.7c-0.2,0.3-0.3,0.7-0.4,1
			c0,0,0,0.1,0,0.1c-0.3,1.4,0.1,2.8,1.1,3.8l15.2,15.2c0.1,0.1,0.2,0.2,0.3,0.2c0,0,0,0,0,0c0.2,0.2,0.4,0.3,0.6,0.4
			c1.5,0.9,3.4,0.7,4.8-0.4l3.4-2.8l5.1-4.2c2.3-1.9,5.6-2.3,8.3-1l0.1,0c0.6,0.3,1.2,0.6,1.8,0.9c0,0,0,0,0,0
			c0.8,0.4,1.5,0.7,2.3,1c0.8,0.3,1.6,0.6,2.3,0.9c0,0,0,0,0,0c0.6,0.2,1.3,0.5,1.9,0.7l0.1,0c2.8,1,4.8,3.5,5.1,6.5l0.6,6.6
			l0.4,4.4c0.2,2,1.7,3.5,3.7,3.8c0,0,0.1,0,0.1,0c0,0,0,0,0.1,0c0.1,0,0.2,0,0.4,0h21.5c1.5,0,2.8-0.8,3.5-1.9c0,0,0-0.1,0.1-0.1
			c0.2-0.3,0.3-0.7,0.5-1c0-0.1,0.1-0.3,0.1-0.4c0-0.1,0-0.3,0.1-0.4l1-11.1c0-0.2,0-0.3,0.1-0.5c0,0,0,0,0,0c0.5-2.7,2.4-5,5-5.9
			c1.5-0.5,2.9-1,4.4-1.6s2.8-1.2,4.2-1.9c2.5-1.2,5.5-1,7.7,0.6c0,0,0,0,0,0c0.1,0.1,0.3,0.2,0.4,0.3l8.6,7.1
			c0.2,0.2,0.4,0.3,0.7,0.5c0.3,0.2,0.7,0.3,1,0.4c0,0,0.1,0,0.1,0c1.3,0.3,2.8-0.1,3.8-1.1l11.6-11.6
			C1930.3,1036.2,1930.3,1033.9,1929,1032.6"/>
		<path style="clip-path:url(#SVGID_00000177475986972278563930000016597267223200962992_);fill:#FFFFFF;" d="M1932.5,929.9
			l-15.2-15.2c-0.1-0.1-0.2-0.2-0.3-0.2c0,0,0,0,0,0c-0.2-0.2-0.4-0.3-0.6-0.4c-1.5-0.8-3.4-0.7-4.8,0.4l-3.4,2.8l-5.1,4.2
			c-2.3,1.9-5.5,2.4-8.2,1c0,0,0,0-0.1,0c-0.6-0.3-1.2-0.6-1.8-0.9c0,0,0,0,0,0c-0.8-0.4-1.5-0.7-2.3-1c-0.8-0.3-1.6-0.6-2.3-0.9
			c0,0,0,0,0,0c-0.6-0.2-1.3-0.5-1.9-0.7l0,0c-2.8-1-4.8-3.6-5.1-6.6l-0.6-6.5l-0.4-4.4c-0.2-2-1.7-3.5-3.7-3.8c0,0-0.1,0-0.1,0
			h-0.1c-0.1,0-0.2,0-0.4,0h-21.5c-1.5,0-2.8,0.8-3.5,1.9c0,0,0,0.1-0.1,0.1c-0.2,0.3-0.3,0.7-0.5,1c0,0.1-0.1,0.3-0.1,0.4
			c0,0.1,0,0.3-0.1,0.4l-1,11.1c0,0.2,0,0.3-0.1,0.5c0,0,0,0,0,0c-0.5,2.7-2.4,5-5,5.9c-1.5,0.5-2.9,1-4.4,1.6
			c-1.4,0.6-2.8,1.2-4.2,1.9c-2.5,1.2-5.5,1-7.7-0.6c0,0,0,0,0,0c-0.1-0.1-0.3-0.2-0.4-0.3l-8.6-7.1c-0.2-0.2-0.4-0.3-0.7-0.4
			c-0.3-0.2-0.7-0.3-1-0.4c0,0-0.1,0-0.1,0c-1.3-0.3-2.8,0.1-3.8,1.1l-10.9,10.9c-1.4,1.4-1.4,3.6,0,5l4.6,4.6
			c4.1,4.1,5.9,9.6,5.4,14.9l6.8,6.8c2.5-4.6,5.7-8.9,9.7-12.8c20.7-20,53.9-19,74.3,1.4l27.7,27.7c-0.9-7.2-3-14.1-6.1-20.4
			c-1.4-2.9-1-6.3,1.1-8.8l7-8.5c0.2-0.2,0.3-0.4,0.5-0.7c0.2-0.3,0.3-0.7,0.4-1c0,0,0-0.1,0-0.1
			C1933.9,932.4,1933.5,931,1932.5,929.9"/>
	</g>
	<path class="st6" d="M1684.7,1457.8l-130.9,226.8l130.9,226.8l-2.9,5c-39.3,68.1-78.6,136.2-117.9,204.2l-7.7,13.3h-257
		l-130.9-226.8H906.3l-2.5-4.3c-41.2-71.4-82.4-142.7-123.6-214.1l-2.5-4.3l2.5-4.3c41.2-71.4,82.4-142.7,123.6-214.1l2.5-4.3h261.9
		l130.9-226.8h257L1684.7,1457.8z"/>
	<g>
		<polygon class="st0" points="1025.3,1686.9 1025.3,1620.2 1037.6,1620.2 1037.6,1675.3 1064.1,1675.3 1064.1,1686.9 		"/>
		<path class="st0" d="M1124.8,1686.9l-5.5-14.6h-26.1l-5.5,14.6h-13.1l25.7-66.6h11.9l25.6,66.6H1124.8z M1114.9,1660.6l-8.6-22.8
			l-8.6,22.8H1114.9z"/>
		<path class="st0" d="M1188,1686.9l-13.6-24.8h-9.2v24.8h-12.4v-66.6h23.4c13.7,0,22.6,8.2,22.6,20.8c0.1,8.1-4.5,15.6-11.9,19.1
			l15.1,26.8H1188z M1176.1,1650.5c4.9,0.6,9.4-2.9,10-7.9c0.1-0.5,0.1-1.1,0-1.6c0-5.8-4-9.2-10.4-9.2h-10.5v18.7H1176.1z"/>
		<path class="st0" d="M1260.6,1686.9v-66.6h22.4c12.5,0,21.2,7.6,21.2,18.3c0.1,5-2,9.9-5.8,13.2c5.1,3.3,8.1,9,7.9,15
			c0,11.9-8.9,20.1-21.6,20.1H1260.6z M1283.5,1675.4c4.7,0,10.2-1.5,10.2-8.8s-6.9-8.6-11-8.6h-9.9v17.4H1283.5z M1282.8,1646.8
			c5.5,0,9-3,9-7.9c0-4.9-3.4-7.3-8.7-7.3h-10.2v15L1282.8,1646.8z"/>
		<path class="st0" d="M1448.4,1686.9l-5.5-14.6h-26l-5.5,14.6h-13.1l25.7-66.6h11.9l25.6,66.6H1448.4z M1438.4,1660.6l-8.6-22.8
			l-8.6,22.8H1438.4z"/>
		<polygon class="st0" points="1484.6,1686.9 1484.6,1631.9 1465.8,1631.9 1465.8,1620.2 1515.7,1620.2 1515.7,1631.9 
			1496.9,1631.9 1496.9,1686.9 		"/>
		<path class="st0" d="M972.1,1688c-18.6,0.4-33.9-14.4-34.3-32.9c0-0.5,0-1.1,0-1.6c-0.4-18.6,14.3-34,32.9-34.5c0.5,0,1,0,1.5,0
			c18.6-0.4,34,14.4,34.3,33c0,0.5,0,1,0,1.5c0.5,18.6-14.2,34.1-32.7,34.6C973.2,1688,972.7,1688,972.1,1688z M972.1,1631
			c-11.9-0.1-21.6,9.4-21.7,21.2c0,0.4,0,0.8,0,1.2c-0.7,12,8.4,22.4,20.4,23.1c12,0.7,22.4-8.4,23.1-20.4c0.1-0.9,0.1-1.8,0-2.6
			c0.5-11.8-8.6-21.9-20.4-22.4C973,1631,972.6,1631,972.1,1631L972.1,1631z"/>
		<path class="st0" d="M1355.1,1688c-18.5,0.4-33.9-14.2-34.4-32.8c0-0.6,0-1.2,0-1.8c-0.6-19,14.2-34.9,33.2-35.5
			c19-0.6,34.9,14.2,35.5,33.2c0,0.8,0,1.6,0,2.3c0.5,18.6-14.2,34.1-32.7,34.6C1356.1,1688,1355.6,1688,1355.1,1688z M1355.1,1631
			c-11.8-0.2-21.6,9.3-21.8,21.1c0,0.5,0,1,0,1.5c-0.7,12,8.4,22.4,20.4,23.1s22.4-8.4,23.1-20.4c0.1-0.9,0.1-1.8,0-2.6
			c0.6-11.8-8.5-21.9-20.3-22.5C1356.1,1631,1355.6,1631,1355.1,1631z"/>
		<path class="st0" d="M1293.4,1701.5h-32.8v7.9h12.2v35.6h8.5v-35.6h12.2V1701.5z"/>
		<path class="st0" d="M1354.6,1701.5h-8.9l-0.4,1.5l-6.5,27.5l-7.2-27.5l-0.4-1.4h-8.8l-0.4,1.4l-7.2,27.7l-6.5-27.5l-0.4-1.5h-8.9
			l0.6,2.4l10.2,39.9l0.4,1.4h8.9l0.4-1.4l7.3-27.3l7.3,27.3l0.4,1.4h8.8l0.4-1.4l10.2-39.9l0.6-2.4L1354.6,1701.5z"/>
		<path class="st0" d="M1437.5,1701.5h-8.4v27.7l-17.7-27l-0.6-0.9h-7.7v43.5h8.5v-27.7l17.4,27.3l0.6,0.9h7.9v-43.5L1437.5,1701.5z
			"/>
		<path class="st0" d="M1479.7,1701.5h-32.8v7.9h12.2v35.6h8.5v-35.6h12.2V1701.5z"/>
		<path class="st0" d="M1515.7,1701.5h-26.6v43.5h26.6v-7.9h-18.2v-10.1h15.8v-7.9h-15.8v-9.5h18.1v-7.9L1515.7,1701.5z"/>
		<path class="st0" d="M1390.7,1701.5h-26.6v43.5h26.6v-7.9h-18.1v-10.1h15.8v-7.9h-15.8v-9.5h18.1v-7.9V1701.5z"/>
		<path class="st0" d="M889.2,1686.1c9.8-5.5,20.7-8.5,31.9-8.9c1.6-2.8,2.4-6,2.3-9.2c0-15.6-12.4-18.8-21.4-21.2
			c-7.9-2.1-12.6-3.5-12.6-8.7c0-4.6,3.7-7.3,9.9-7.3c4.7,0,10.4,1.5,10.4,8.7v2.6h12.5v-2.5c0-14-11.9-20.4-22.8-20.4
			c-14.6,0-22.2,9.6-22.2,19c0,15.1,11.4,17.8,20.5,20.1c9.1,2.3,13.5,3.6,13.5,10.2c0,5.7-6.1,7.9-11.3,7.9
			c-7.4,0-12.5-4.2-12.5-10.2v-2.6H875v2.6C875.1,1675.1,880.8,1683,889.2,1686.1z"/>
		<path class="st0" d="M1060.7,1727.3h0.3c4.3,0,8.5,0.7,12.6,1.9c4.6-1.7,9.9-3.5,15.6-5.3c-8.6-4.6-18.2-7.1-28-7.2h-0.5
			c-13.6,0-22.6,6.2-31.3,12.1c-8.7,5.9-17.4,11.9-31.7,11.9c-15.2,0-23.7-9.4-33.9-20.3s-21.3-23.4-40.4-23.4l0,0
			c-29,0-45.1,24.7-45.8,25.8l-1.3,1.9l2.1,1.4l4.8,3.1l2.1,1.4l1.2-1.9c0-0.2,13.8-20.8,36.7-20.8c14.3,0,22.8,9.2,32.6,19.8
			c10.8,11.7,22,23.7,41.9,23.7c17.4,0,28.1-7.3,37.6-13.7C1043.4,1732.1,1050.4,1727.4,1060.7,1727.3z"/>
		<path class="st0" d="M1246.8,1734.6v10.8h-113.3c-10.2,0.3-20.4-0.7-30.3-3c11.7-3.4,23.6-5.9,35.6-7.6c0.6-0.1,1.3-0.1,1.9,0
			h75.9l3.4-5.5l0.6-0.6l3.1-4.2c0.4-0.6,0.3-1.4-0.3-1.8c-0.2-0.2-0.5-0.3-0.8-0.2c-17.4,1-43.5,2.5-72.1,4.8
			c-31.2,3-61.7,11.2-90.2,24.1h-19.7c0.6-0.5,1.3-0.9,1.9-1.3c7.7-4.2,15.6-7.9,23.7-11c13.4-5.4,27.1-10,41.1-13.6l12.3-3.2
			l14.4-4.4c2.8-0.9,4.7-3.5,4.8-6.4c0.3-4.6,4.3-8,8.9-7.7c4.1,0.3,7.4,3.6,7.7,7.7c0,1.1-0.2,2.2-0.6,3.2l0,0l-0.5,1.3
			c-0.2,0.6,0.1,1.3,0.7,1.4c0.1,0,0.2,0.1,0.3,0.1l7.4-0.3c25.2-1.9,47.5-3.2,62.3-4c4.8-0.2,8.8,3.5,9,8.3c0.1,2-0.5,3.9-1.7,5.5
			l-5,6.8l-0.5,0.8H1246.8z"/>
	</g>
	<path class="st0" d="M365.2,1923.5l130.9,226.8l-130.9,226.8l2.9,5c39.3,68.1,78.6,136.2,117.9,204.2l7.7,13.3h257l130.9-226.8
		h261.9l2.5-4.3c41.2-71.4,82.4-142.7,123.6-214.1l2.5-4.3l-2.5-4.3c-41.2-71.4-82.4-142.7-123.6-214.1l-2.5-4.3H881.7l-130.9-226.8
		h-257L365.2,1923.5z"/>
	<g>
		<g>
			<path class="st7" d="M664.2,2072.7c0,6,0,12,0,18c0,1.2-0.1,1.2-1.2,1.2c-11.6,0-23,0-34.6,0.1c-2.6,0-5.2,0.3-7.6,1.1
				c-6,1.8-8.3,7.8-5,13.2c1.6,2.7,3.9,4.6,6.3,6.3c5.7,3.9,11.6,7.5,17.3,11.3c4.3,2.8,8.6,5.5,12.9,8.3c4.6,3,8.7,6.5,11.8,11.1
				c3.2,4.7,4.8,9.8,5,15.4c0.1,5.8-1.2,11.3-4.3,16.3c-4.6,7.5-11.3,12.1-19.9,14.1c-3.2,0.7-6.5,1.2-9.8,1.3
				c-14.2,0.6-28.3,0.2-42.5,0.3c0-6.6,0-13.4,0-20c0.4,0,0.8,0,1.2,0c10.9,0,21.9,0,32.8,0c3.7,0,7.3-0.2,11-1
				c2.2-0.5,4.3-1.2,6.1-2.7c3-2.5,3.5-5.9,2.7-9.5c-0.6-3-2.5-5.3-4.7-7.4c-2.2-2.1-4.6-3.9-7.1-5.6c-8.4-5.5-17-11.1-25.5-16.6
				c-4.1-2.9-7.9-6.2-10.8-10.4c-4.1-5.8-5.7-12.3-5-19.4c0.6-6.5,3.1-12,7.8-16.4c4.7-4.4,10.3-6.8,16.5-8.1
				c2.1-0.4,4.2-0.6,6.3-0.9C637.4,2072.7,650.8,2072.7,664.2,2072.7z"/>
			<path class="st7" d="M919.4,2072.7c0,0.4,0,0.9,0,1.3c0,25.5,0,51.1,0,76.7c0,5.1,1.1,9.9,3.9,14.2c3.4,5.4,8.4,8.4,14.7,9.4
				c3.9,0.6,7.8,0.4,11.6-0.9c7-2.5,11.2-7.5,13.3-14.4c2-7.1,1.7-14.2-1.4-20.9c-3.4-7.5-9.3-11.7-17.5-12.7
				c-5.7-0.7-11.1,0.7-16.2,3.2c-0.2,0.1-0.4,0.2-0.6,0.3c-0.4,0.2-0.6,0.1-0.6-0.4c0-0.2,0-0.3,0-0.5c0-5.2,0-10.5,0-15.7
				c0-0.8,0.2-1.2,1.1-1.4c5.8-2,11.9-2.8,18-2.4c7.6,0.4,14.7,2.7,20.9,7.1c6.6,4.7,11,11,13.7,18.6c1.4,4.1,2.2,8.3,2.4,12.6
				c0.6,8.8-0.9,17.1-5.1,24.9c-6.1,11.3-15.7,18-28.4,19.9c-8.9,1.4-17.6,0.2-25.7-3.9c-11.4-5.8-18.6-14.9-20.9-27.6
				c-0.6-3.2-0.8-6.5-1-9.8c-0.2-5.1-0.1-10.2-0.1-15.2c0-20.4,0-40.7,0-61.1c0-0.4,0-0.9,0-1.3
				C907.5,2072.7,913.5,2072.7,919.4,2072.7z"/>
			<path class="st7" d="M709.7,2234.7c0-3.4,0-6.7,0-10.1c0-10.8,0-21.6,0-32.4c0-0.9-0.2-1.2-1.1-1.6c-5-1.5-9.6-3.7-13.5-7.1
				c-5.2-4.3-8.4-9.7-10.3-16c-1.3-4.4-1.9-8.9-2-13.5c-0.2-14.6-0.1-29.1-0.1-43.7c0-1.1,0-1.1,1.1-1.1c5.2,0,10.4,0,15.7,0
				c1.2,0,1.2,0,1.2,1.2c0,15,0,30.1,0,45.1c0,4.7,1.2,8.9,4.1,12.6c3,3.8,7,5.8,11.8,6.4c3.1,0.4,6.1,0.1,8.9-1.1
				c5.3-2.1,8.6-6.1,10.2-11.4c0.7-2.3,1-4.6,1-7c0-14.8,0-29.7,0-44.5c0-1.3,0-1.3,1.3-1.3c5.2,0,10.4,0,15.6,0
				c0.8,0,1.1,0.2,1.1,1.1c0,14,0,28-0.1,42c0,5.9-0.7,11.7-2.7,17.3c-2.8,7.8-7.8,13.8-15.2,17.8c-2.5,1.4-5.2,2.5-8,3.3
				c-0.8,0.2-1.1,0.6-1.1,1.4c0,13.7,0,27.5,0,41.2c0,0.4,0,0.9,0,1.3C721.6,2234.7,715.7,2234.7,709.7,2234.7z"/>
			<path class="st7" d="M1107.2,2190.7c-5.6,0-11.2,0-16.8,0c-1.2,0-1.2,0-1.2-1.2c0-38.6,0-77.3,0-115.9c0-0.3,0-0.6,0.1-0.9
				c5.7,0,11.4,0,17.2,0c0.6,0,0.7,0.1,0.7,0.7C1107.2,2112.6,1107.2,2151.6,1107.2,2190.7z"/>
			<path class="st7" d="M837.1,2164.3c0,8.4,0,16.7,0,25.1c0,1.3,0,1.3-1.3,1.3c-5.1,0-10.2,0-15.3,0c-1.3,0-1.3,0-1.3-1.3
				c0-16.2,0-32.3,0-48.5c0-4-0.9-7.8-3.4-11.1c-2.5-3.4-6-5.2-10.2-5.8c-3-0.4-6-0.1-8.8,1.2c-5,2.3-7.8,6.4-8.8,11.7
				c-0.3,1.4-0.4,2.8-0.4,4.2c0,16,0,31.9,0,47.8c0,0.3,0,0.6,0,0.9c0,0.5-0.2,0.7-0.7,0.7c-0.2,0-0.3,0-0.5,0c-5.2,0-10.3,0-15.5,0
				c-1.2,0-1.2-0.1-1.2-1.2c0-14.8-0.1-29.6,0-44.4c0-6.3,1-12.5,3.5-18.3c4.7-10.7,12.9-16.8,24.3-18.5c4.5-0.7,9.1-0.6,13.5,0.6
				c6,1.6,10.9,4.9,15.1,9.3c0.4,0.5,0.9,0.9,1.3,1.4c0.4,0.4,0.6,0.4,1,0c1.9-2.4,4.2-4.5,6.6-6.3c4.7-3.4,10-5.2,15.8-5.5
				c5.6-0.2,11.1,0.6,16.2,2.7c6.1,2.6,10.7,6.8,14,12.5c2.9,5,4.3,10.5,5,16.2c0.3,2.7,0.3,5.5,0.3,8.2c0,13.9,0,27.8,0,41.8
				c0,1.3,0,1.3-1.3,1.3c-5.2,0-10.3,0-15.5,0c-1.3,0-1.3,0-1.3-1.4c0-16.2,0-32.4,0-48.6c0-3.8-0.8-7.4-3-10.5
				c-2.6-3.8-6.3-5.7-10.9-6.1c-3.4-0.4-6.6,0.2-9.6,1.9c-4.5,2.5-6.8,6.6-7.6,11.6c-0.2,1.1-0.2,2.1-0.2,3.2
				C837.1,2148.6,837.1,2156.5,837.1,2164.3z"/>
			<path class="st7" d="M1035.5,2192.2c-11.7-0.2-21.7-4.4-29.7-13c-6.1-6.6-9.9-14.5-10.9-23.5c-1.4-11.8,1.2-22.6,8.6-32.1
				c6.6-8.5,15.3-13.7,26-15.3c8.4-1.3,16.6-0.1,24.3,3.7c7.6,3.8,13.4,9.6,17.5,17c3.3,5.9,5,12.2,5.3,19c0.5,11-2.6,20.8-9.6,29.3
				c-6.8,8.3-15.6,13.2-26.3,14.6C1039,2192.1,1037.3,2192.2,1035.5,2192.2z M1035.5,2125.2c-0.6,0-1.2,0-1.8,0
				c-0.6,0.1-1.1,0.1-1.6,0.2c-6.1,1.1-10.8,4.3-14.3,9.3c-3.5,5-5,10.6-4.7,16.8c0.2,4.2,1.3,8.3,3.5,11.9
				c4.7,7.5,11.4,11.4,20.5,10.9c6.2-0.4,11.2-3.2,15.2-8.1c4.2-5.2,5.9-11.3,5.5-18c-0.3-5.5-2.1-10.4-5.5-14.6
				C1048,2128.2,1042.5,2125.4,1035.5,2125.2z"/>
		</g>
	</g>
	<path class="st0" d="M2906.1,1216.8l-130.9,226.8l130.9,226.8l-2.9,5c-39.3,68.1-78.6,136.2-117.9,204.2l-7.7,13.3h-257
		l-130.9-226.8h-261.9l-2.5-4.3c-41.2-71.4-82.4-142.7-123.6-214.1l-2.5-4.3l2.5-4.3c41.2-71.4,82.4-142.7,123.6-214.1l2.5-4.3
		h261.9l130.9-226.8h257L2906.1,1216.8z"/>
	
		<image style="overflow:visible;" width="742" height="796" xlink:href="5B8D5E37.jpg"  transform="matrix(0.5391 0 0 0.5391 2333.2766 1237.1362)">
	</image>
</g>
<g id="Layer_3">
	<path class="st8" d="M1682.2,531.5l-130.9,226.8L1682.2,985l-2.9,5c-39.3,68.1-78.6,136.2-117.9,204.2l-7.7,13.3h-257l-130.9-226.8
		H903.8l-2.5-4.3c-41.2-71.4-82.4-142.7-123.6-214.1l-2.5-4.3l2.5-4.3c41.2-71.4,82.4-142.7,123.6-214.1l2.5-4.3h261.9l130.9-226.8
		h257L1682.2,531.5z"/>
	<g>
		
			<sodipodi:namedview  bordercolor="#666666" borderopacity="1" gridtolerance="10" guidetolerance="10" id="namedview45" objecttolerance="10" pagecolor="#ffffff" showgrid="false">
			</sodipodi:namedview>
		<g id="g171_00000063616564853219237960000014212403800447528866_">
			<g id="g42_00000081646383961217826280000005654948179671846309_">
				
					<linearGradient id="path2_00000058554139674357501090000008799948328393823127_" gradientUnits="userSpaceOnUse" x1="786.0237" y1="3618.8406" x2="1459.3009" y2="3760.186" gradientTransform="matrix(1 0 0 -1 53.3709 4423.4463)">
					<stop  offset="0" style="stop-color:#F8F9FC"/>
					<stop  offset="1" style="stop-color:#F8F9FC"/>
				</linearGradient>
				
					<path id="path2_00000101083506608997646680000009211301748191607483_" style="fill:url(#path2_00000058554139674357501090000008799948328393823127_);" d="
					M843,822L843,822c-1.4-2.4-0.6-5.5,1.8-6.9l89.9-51.9c2.4-1.4,5.5-0.6,6.9,1.8l0,0c1.4,2.4,0.6,5.5-1.8,6.9l-90,51.9
					C847.5,825.2,844.4,824.4,843,822z"/>
				
					<linearGradient id="path4_00000055690528367628152330000004757232330867619236_" gradientUnits="userSpaceOnUse" x1="788.4429" y1="3607.3171" x2="1461.7201" y2="3748.6626" gradientTransform="matrix(1 0 0 -1 53.3709 4423.4463)">
					<stop  offset="0" style="stop-color:#F8F9FC"/>
					<stop  offset="1" style="stop-color:#F8F9FC"/>
				</linearGradient>
				
					<path id="path4_00000031179851239186530110000002757268865145205157_" style="fill:url(#path4_00000055690528367628152330000004757232330867619236_);" d="
					M907.7,807.6L907.7,807.6c-1.4-2.4-0.6-5.5,1.8-6.9l20-11.6c2.4-1.4,5.5-0.6,6.9,1.8l0,0c1.4,2.4,0.6,5.5-1.8,6.9l-20,11.6
					C912.1,810.8,909.1,810,907.7,807.6z"/>
				
					<linearGradient id="path6_00000008844630178166984160000016474991560796373154_" gradientUnits="userSpaceOnUse" x1="790.7469" y1="3596.342" x2="1464.0242" y2="3737.6873" gradientTransform="matrix(1 0 0 -1 53.3709 4423.4463)">
					<stop  offset="0" style="stop-color:#F8F9FC"/>
					<stop  offset="1" style="stop-color:#F8F9FC"/>
				</linearGradient>
				
					<path id="path6_00000065058913681664739630000007574002005913156261_" style="fill:url(#path6_00000008844630178166984160000016474991560796373154_);" d="
					M882.8,822L882.8,822c-1.4-2.4-0.6-5.5,1.8-6.9l7.5-4.3c2.4-1.4,5.5-0.6,6.9,1.8l0,0c1.4,2.4,0.6,5.5-1.8,6.9l-7.5,4.3
					C887.2,825.2,884.1,824.4,882.8,822z"/>
				
					<linearGradient id="path8_00000008871034893807189850000010992435035850899378_" gradientUnits="userSpaceOnUse" x1="781.4563" y1="3640.5967" x2="1454.7335" y2="3781.9421" gradientTransform="matrix(1 0 0 -1 53.3709 4423.4463)">
					<stop  offset="0" style="stop-color:#F8F9FC"/>
					<stop  offset="1" style="stop-color:#F8F9FC"/>
				</linearGradient>
				
					<path id="path8_00000012455536594387170100000006094288981963317687_" style="fill:url(#path8_00000008871034893807189850000010992435035850899378_);" d="
					M863.5,786.5L863.5,786.5c-1.4-2.4-0.6-5.5,1.8-6.9l44-25.4c2.4-1.4,5.5-0.6,6.9,1.8l0,0c1.4,2.4,0.6,5.5-1.8,6.9l-44,25.4
					C868,789.7,864.9,788.9,863.5,786.5z"/>
				
					<linearGradient id="path10_00000039092676737499560750000002009498000627110790_" gradientUnits="userSpaceOnUse" x1="770.3311" y1="3641.1514" x2="1473.7664" y2="3791.1223" gradientTransform="matrix(1 0 0 -1 53.3709 4423.4463)">
					<stop  offset="0" style="stop-color:#F8F9FC"/>
					<stop  offset="1" style="stop-color:#F8F9FC"/>
				</linearGradient>
				
					<path id="path10_00000010274458341366894280000002315440743294222727_" style="fill:url(#path10_00000039092676737499560750000002009498000627110790_);" d="
					M941.7,756.6c5.8,1.5,9.2,7.5,7.7,13.3l-3.1,11.6c-1,2.9-0.6,6.3,1.6,8.9c2.2,2.7,6,3.8,9.3,2.8c3.6-1.1,5.8-3.9,6.4-7.1
					c0.9-4.8,3.9-8.9,8.1-11.4c5.4,9.4,2.2,21.3-7.2,26.7c-4.2,2.4-8.9,3.1-13.3,2.3c-3.2-0.6-6.6-0.1-9.4,1.6l-23.4,13.5
					c2.6,3.5,6.7,5.6,11.1,5.6h67.2c4.9,0,9.5-2.6,11.9-6.9l33.6-58.2c2.4-4.3,2.4-9.5,0-13.8l-33.6-58.1c-2.5-4.3-7-6.9-11.9-6.9
					h-67.2c-4.9,0-9.5,2.6-11.9,6.9l-33.6,58.2c-2.1,3.7-2.4,8.1-0.9,12l24.6-14.2c2.5-1.4,4.6-3.6,5.7-6.3c1.6-3.9,4.4-7.3,8.3-9.6
					c9.4-5.4,21.3-2.2,26.7,7.2c-4.2,2.4-9.3,2.9-13.9,1.3c-2.9-1-6.3-0.6-8.9,1.6c-2.7,2.2-3.8,6-2.8,9.3c1.1,3.6,3.9,5.8,7.1,6.4
					L941.7,756.6z M967.1,713.7c-2.4,1.4-3.9,3.7-4.4,6.2c-0.9,4.8-3.9,8.9-8.1,11.4c-5.4-9.4-2.2-21.3,7.2-26.7
					c9.4-5.4,21.3-2.2,26.7,7.2c5.4,9.4,2.2,21.3-7.2,26.7c-2.4-4.2-2.9-9.3-1.3-13.9c0.9-2.4,0.7-5.2-0.7-7.6
					C977,712.7,971.4,711.2,967.1,713.7z M1004.5,778.4c-9.4,5.4-21.3,2.2-26.7-7.2c4.2-2.4,9.3-2.9,13.9-1.3
					c2.4,0.9,5.2,0.7,7.6-0.7c4.3-2.5,5.8-8,3.3-12.3c-1.4-2.4-3.7-3.9-6.2-4.4c-4.8-0.9-8.9-3.9-11.4-8.1
					c9.4-5.4,21.3-2.2,26.7,7.2C1017,761,1013.8,773,1004.5,778.4z"/>
				
					<linearGradient id="path12_00000146469402693519919390000000703040908025280688_" gradientUnits="userSpaceOnUse" x1="780.306" y1="3646.0759" x2="1453.5833" y2="3787.4214" gradientTransform="matrix(1 0 0 -1 53.3709 4423.4463)">
					<stop  offset="0" style="stop-color:#F8F9FC"/>
					<stop  offset="1" style="stop-color:#F8F9FC"/>
				</linearGradient>
				
					<path id="path12_00000089557876711967073450000008772919094854923418_" style="fill:url(#path12_00000146469402693519919390000000703040908025280688_);" d="
					M1097.9,690.8h23.3c4.8,0,8.9,0.5,12.1,1.5c3.2,1,5.8,2.6,7.7,4.6s3.2,4.6,4,7.7c0.8,3.1,1.2,6.7,1.2,10.9v6.7
					c0,4.1-0.4,7.6-1.2,10.7c-0.8,3.1-2.1,5.7-4,7.8c-1.9,2.1-4.4,3.7-7.6,4.7s-7.2,1.6-11.9,1.6h-23.5L1097.9,690.8L1097.9,690.8z
					 M1110.7,736.1h9.4c2.3,0,4.3-0.2,5.9-0.6c1.6-0.4,2.9-1.1,3.8-2.1c1-1,1.7-2.4,2.1-4.3c0.4-1.8,0.6-4.2,0.6-7v-6.6
					c0-2.8-0.2-5.2-0.6-7c-0.4-1.8-1.1-3.2-2.1-4.2c-1-1-2.3-1.7-3.8-2.1c-1.6-0.4-3.5-0.6-5.9-0.6h-9.4V736.1z"/>
				
					<linearGradient id="path14_00000078743196318195346540000014415038429512412339_" gradientUnits="userSpaceOnUse" x1="784.0739" y1="3628.1282" x2="1457.3511" y2="3769.4736" gradientTransform="matrix(1 0 0 -1 53.3709 4423.4463)">
					<stop  offset="0" style="stop-color:#F8F9FC"/>
					<stop  offset="1" style="stop-color:#F8F9FC"/>
				</linearGradient>
				
					<path id="path14_00000116931857989717538470000008969858666982685326_" style="fill:url(#path14_00000078743196318195346540000014415038429512412339_);" d="
					M1165.8,747.1h-12.6v-26c0-2.9,0.4-5.4,1.1-7.4c0.7-2,1.9-3.6,3.4-4.8c1.5-1.2,3.4-2.1,5.6-2.6c2.2-0.5,4.8-0.7,7.8-0.7
					c1.5,0,3,0,4.5,0c1.5,0,3.1,0.1,5,0.2l-1.9,10.2c-0.5-0.1-1.3-0.1-2.6-0.1c-1.3,0-2.5,0-3.7,0c-1.4,0-2.6,0.1-3.4,0.4
					c-0.9,0.3-1.5,0.7-2,1.2c-0.5,0.5-0.8,1.2-0.9,2.1c-0.1,0.9-0.2,1.9-0.2,3.1L1165.8,747.1L1165.8,747.1z"/>
				
					<linearGradient id="path16_00000014626581271672459120000004919163903791934369_" gradientUnits="userSpaceOnUse" x1="785.6431" y1="3620.6536" x2="1458.9203" y2="3761.999" gradientTransform="matrix(1 0 0 -1 53.3709 4423.4463)">
					<stop  offset="0" style="stop-color:#F8F9FC"/>
					<stop  offset="1" style="stop-color:#F8F9FC"/>
				</linearGradient>
				
					<path id="path16_00000055703792212139243410000013289289751373571748_" style="fill:url(#path16_00000014626581271672459120000004919163903791934369_);" d="
					M1203.2,704.4c3.7,0,6.8,0.3,9.4,0.9c2.6,0.6,4.7,1.7,6.3,3.2c1.6,1.5,2.8,3.6,3.5,6.1c0.7,2.5,1.1,5.7,1.1,9.5v4.3
					c0,3.7-0.4,6.9-1.1,9.4c-0.7,2.5-1.9,4.6-3.5,6.1c-1.6,1.5-3.7,2.6-6.3,3.3c-2.6,0.7-5.7,1-9.4,1c-3.7,0-6.8-0.3-9.4-1
					s-4.7-1.8-6.3-3.3c-1.6-1.5-2.8-3.6-3.6-6.1c-0.7-2.5-1.1-5.7-1.1-9.4v-4.3c0-3.8,0.4-7,1.1-9.5c0.7-2.5,1.9-4.6,3.6-6.1
					c1.6-1.5,3.7-2.6,6.3-3.2S1199.5,704.4,1203.2,704.4z M1210.8,723.8c0-2.1-0.1-3.7-0.3-5c-0.2-1.2-0.6-2.2-1.2-2.8
					c-0.6-0.7-1.3-1.1-2.3-1.3c-1-0.2-2.2-0.4-3.7-0.4c-1.5,0-2.8,0.1-3.7,0.4c-1,0.2-1.8,0.7-2.3,1.3c-0.6,0.7-1,1.6-1.2,2.8
					c-0.2,1.2-0.4,2.9-0.4,5v5.1c0,2.1,0.1,3.7,0.4,5c0.2,1.3,0.6,2.2,1.2,2.9c0.6,0.7,1.3,1.1,2.3,1.3c1,0.2,2.2,0.4,3.7,0.4
					c1.5,0,2.8-0.1,3.7-0.4c1-0.2,1.8-0.7,2.3-1.3s1-1.6,1.2-2.9c0.2-1.3,0.3-2.9,0.3-5V723.8z"/>
				
					<linearGradient id="path18_00000183241636755261279520000003225773075835212477_" gradientUnits="userSpaceOnUse" x1="787.7997" y1="3610.3809" x2="1461.0769" y2="3751.7261" gradientTransform="matrix(1 0 0 -1 53.3709 4423.4463)">
					<stop  offset="0" style="stop-color:#F8F9FC"/>
					<stop  offset="1" style="stop-color:#F8F9FC"/>
				</linearGradient>
				
					<path id="path18_00000054227702934254774960000011287788580146429345_" style="fill:url(#path18_00000183241636755261279520000003225773075835212477_);" d="
					M1230.4,747.1V720c0-2.9,0.4-5.3,1.1-7.3c0.7-2,1.9-3.6,3.4-4.8c1.5-1.2,3.6-2.1,6.1-2.6c2.5-0.5,5.4-0.8,8.9-0.8
					c3.5,0,6.5,0.3,8.9,0.8c2.5,0.5,4.5,1.4,6.1,2.6c1.5,1.2,2.7,2.8,3.4,4.8c0.7,2,1.1,4.4,1.1,7.3v27.1h-12.6V721
					c0-1.1-0.1-2.1-0.2-2.8c-0.2-0.8-0.5-1.5-0.9-2c-0.5-0.5-1.2-0.9-2.1-1.2c-0.9-0.2-2.1-0.4-3.7-0.4c-1.5,0-2.8,0.1-3.7,0.4
					c-0.9,0.2-1.6,0.6-2.1,1.2c-0.5,0.5-0.8,1.2-0.9,2c-0.1,0.8-0.2,1.7-0.2,2.8v26.1H1230.4z"/>
				
					<linearGradient id="path20_00000002373844911853524110000007009210371865272990_" gradientUnits="userSpaceOnUse" x1="789.6596" y1="3601.5215" x2="1462.9369" y2="3742.8667" gradientTransform="matrix(1 0 0 -1 53.3709 4423.4463)">
					<stop  offset="0" style="stop-color:#F8F9FC"/>
					<stop  offset="1" style="stop-color:#F8F9FC"/>
				</linearGradient>
				
					<path id="path20_00000064333074235962514280000001824617537672741783_" style="fill:url(#path20_00000002373844911853524110000007009210371865272990_);" d="
					M1288.9,730.6c0.1,1.4,0.2,2.5,0.4,3.3c0.2,0.9,0.7,1.5,1.3,2.1c0.6,0.5,1.4,0.9,2.4,1.1c1,0.2,2.3,0.3,3.8,0.3c2.2,0,4.5,0,7,0
					s5.3,0,8.4-0.1l-1.8,9.8c-2.6,0.1-5.1,0.2-7.3,0.2s-4.7,0-7.4,0c-3.7,0-6.9-0.4-9.3-1.2c-2.5-0.8-4.5-1.9-5.9-3.5
					c-1.5-1.5-2.5-3.5-3.1-5.9c-0.6-2.3-0.9-5.1-0.9-8.3v-4.3c0-3.3,0.3-6.2,1-8.7s1.8-4.5,3.3-6.1c1.5-1.6,3.6-2.9,6.1-3.7
					c2.5-0.8,5.6-1.2,9.3-1.2c6.6,0,11.4,1.4,14.2,4.2c2.8,2.8,4.3,6.6,4.3,11.6v1.7c0,1.7-0.1,3.2-0.3,4.3c-0.2,1.1-0.6,2-1.2,2.7
					s-1.3,1.2-2.2,1.4c-0.9,0.3-2,0.4-3.3,0.4L1288.9,730.6L1288.9,730.6z M1295.7,713.7c-1.4,0-2.6,0.1-3.4,0.4
					c-0.9,0.2-1.6,0.7-2.1,1.3c-0.5,0.6-0.9,1.4-1,2.5c-0.2,1-0.3,2.4-0.3,4.1h13.7c0-1.7-0.1-3.1-0.3-4.1c-0.2-1-0.6-1.9-1.1-2.5
					c-0.5-0.6-1.2-1-2.1-1.3C1298.3,713.8,1297.1,713.7,1295.7,713.7z"/>
				
					<linearGradient id="path28_00000151503854251909501560000009272746786991249039_" gradientUnits="userSpaceOnUse" x1="797.8602" y1="3562.459" x2="1471.1375" y2="3703.8044" gradientTransform="matrix(1 0 0 -1 53.3709 4423.4463)">
					<stop  offset="0" style="stop-color:#F8F9FC"/>
					<stop  offset="1" style="stop-color:#F8F9FC"/>
				</linearGradient>
				
					<path id="path28_00000109029241051720008120000003239924014595715501_" style="fill:url(#path28_00000151503854251909501560000009272746786991249039_);" d="
					M1190.6,801.2l6.1-28.3h12.2l-12,41.4h-12.2l-6.2-26.1l-6.3,26.1h-12.6l-11.9-41.4h12.7l5.9,28.2l6.8-28.2h10.8L1190.6,801.2z"
					/>
				
					<linearGradient id="path30_00000165212025226192309160000004120528419792480404_" gradientUnits="userSpaceOnUse" x1="800.4202" y1="3550.2654" x2="1473.6974" y2="3691.6106" gradientTransform="matrix(1 0 0 -1 53.3709 4423.4463)">
					<stop  offset="0" style="stop-color:#F8F9FC"/>
					<stop  offset="1" style="stop-color:#F8F9FC"/>
				</linearGradient>
				
					<path id="path30_00000040554906355198848950000007248581380512231856_" style="fill:url(#path30_00000165212025226192309160000004120528419792480404_);" d="
					M1223.7,797.8c0.1,1.4,0.2,2.5,0.4,3.3c0.2,0.9,0.7,1.5,1.3,2.1s1.4,0.9,2.4,1.1c1,0.2,2.3,0.3,3.8,0.3c2.2,0,4.5,0,7,0
					c2.5,0,5.3,0,8.4-0.1l-1.8,9.8c-2.6,0.1-5.1,0.2-7.3,0.2c-2.3,0-4.7,0-7.4,0c-3.7,0-6.9-0.4-9.3-1.2c-2.5-0.8-4.5-1.9-5.9-3.5
					c-1.5-1.5-2.5-3.5-3.1-5.9c-0.6-2.3-0.9-5.1-0.9-8.3v-4.3c0-3.3,0.3-6.2,1-8.7s1.8-4.5,3.3-6.1c1.5-1.6,3.6-2.9,6.1-3.7
					c2.5-0.8,5.6-1.2,9.3-1.2c6.6,0,11.4,1.4,14.2,4.2s4.3,6.6,4.3,11.6v1.7c0,1.7-0.1,3.2-0.3,4.3c-0.2,1.1-0.6,2-1.2,2.7
					s-1.3,1.2-2.2,1.4s-2,0.4-3.3,0.4L1223.7,797.8L1223.7,797.8z M1230.5,780.9c-1.4,0-2.6,0.1-3.4,0.4c-0.9,0.2-1.6,0.7-2.1,1.3
					c-0.5,0.6-0.9,1.4-1,2.5c-0.2,1-0.3,2.4-0.3,4.1h13.7c0-1.7-0.1-3.1-0.3-4.1c-0.2-1-0.6-1.9-1.1-2.5c-0.5-0.6-1.2-1-2.1-1.3
					C1233.1,781,1231.9,780.9,1230.5,780.9z"/>
				
					<linearGradient id="path32_00000033356309839631143100000007288784465336036022_" gradientUnits="userSpaceOnUse" x1="802.3906" y1="3540.8792" x2="1475.6678" y2="3682.2246" gradientTransform="matrix(1 0 0 -1 53.3709 4423.4463)">
					<stop  offset="0" style="stop-color:#F8F9FC"/>
					<stop  offset="1" style="stop-color:#F8F9FC"/>
				</linearGradient>
				
					<path id="path32_00000096765376259317940970000015631581753021911948_" style="fill:url(#path32_00000033356309839631143100000007288784465336036022_);" d="
					M1255.9,814.3v-27.1c0-2.9,0.4-5.3,1.1-7.3s1.9-3.6,3.4-4.8c1.5-1.2,3.6-2.1,6.1-2.6c2.5-0.5,5.4-0.8,8.9-0.8
					c3.5,0,6.5,0.3,8.9,0.8c2.5,0.5,4.5,1.4,6.1,2.6c1.5,1.2,2.7,2.8,3.4,4.8c0.7,2,1.1,4.4,1.1,7.3v27.1h-12.6v-26.1
					c0-1.1-0.1-2.1-0.2-2.8c-0.2-0.8-0.5-1.5-0.9-2c-0.5-0.5-1.2-0.9-2.1-1.2c-0.9-0.2-2.1-0.4-3.7-0.4c-1.5,0-2.8,0.1-3.7,0.4
					c-0.9,0.2-1.6,0.6-2.1,1.2c-0.5,0.5-0.8,1.2-0.9,2c-0.2,0.8-0.2,1.7-0.2,2.8v26.1H1255.9z"/>
				
					<linearGradient id="path34_00000089562251111178952320000010753205938475006100_" gradientUnits="userSpaceOnUse" x1="802.9142" y1="3538.3853" x2="1476.1914" y2="3679.7307" gradientTransform="matrix(1 0 0 -1 53.3709 4423.4463)">
					<stop  offset="0" style="stop-color:#F8F9FC"/>
					<stop  offset="1" style="stop-color:#F8F9FC"/>
				</linearGradient>
				
					<path id="path34_00000077303920654793062520000009557174850390165376_" style="fill:url(#path34_00000089562251111178952320000010753205938475006100_);" d="
					M1315.1,782.8v14.9c0,1.4,0.1,2.5,0.2,3.4c0.2,0.9,0.5,1.6,0.9,2.1c0.5,0.5,1.1,0.9,1.9,1c0.8,0.2,1.9,0.3,3.3,0.3
					c0.4,0,1,0,1.7,0c0.7,0,1.5,0,2.3,0c0.8,0,1.5,0,2.1,0c0.7,0,1.1,0,1.4,0l-1.9,9.9c-0.3,0-0.7,0-1.3,0s-1.3,0-2,0
					c-0.7,0-1.5,0-2.2,0c-0.7,0-1.3,0-1.7,0c-3.5,0-6.4-0.2-8.7-0.7c-2.3-0.5-4-1.4-5.3-2.6c-1.3-1.2-2.2-2.9-2.6-5
					c-0.5-2.1-0.7-4.8-0.7-8v-34.7l12.6-1.8v11.4h14.4l-1.9,9.9H1315.1z"/>
				
					<linearGradient id="path36_00000171693623032683607760000002469538742392599696_" gradientUnits="userSpaceOnUse" x1="805.5715" y1="3525.7278" x2="1478.8486" y2="3667.0732" gradientTransform="matrix(1 0 0 -1 53.3709 4423.4463)">
					<stop  offset="0" style="stop-color:#F8F9FC"/>
					<stop  offset="1" style="stop-color:#F8F9FC"/>
				</linearGradient>
				
					<path id="path36_00000031191308357550848410000007679666606020990089_" style="fill:url(#path36_00000171693623032683607760000002469538742392599696_);" d="
					M1345.7,797.8c0.1,1.4,0.2,2.5,0.4,3.3c0.2,0.9,0.7,1.5,1.3,2.1s1.4,0.9,2.4,1.1c1,0.2,2.3,0.3,3.8,0.3c2.2,0,4.5,0,7,0
					s5.3,0,8.4-0.1l-1.8,9.8c-2.6,0.1-5.1,0.2-7.3,0.2s-4.7,0-7.4,0c-3.7,0-6.9-0.4-9.3-1.2c-2.5-0.8-4.5-1.9-5.9-3.5
					c-1.5-1.5-2.5-3.5-3.1-5.9c-0.6-2.3-0.9-5.1-0.9-8.3v-4.3c0-3.3,0.3-6.2,1-8.7s1.8-4.5,3.3-6.1c1.5-1.6,3.6-2.9,6.1-3.7
					c2.5-0.8,5.6-1.2,9.3-1.2c6.6,0,11.4,1.4,14.2,4.2c2.8,2.8,4.3,6.6,4.3,11.6v1.7c0,1.7-0.1,3.2-0.3,4.3c-0.2,1.1-0.6,2-1.2,2.7
					s-1.3,1.2-2.2,1.4c-0.9,0.3-2,0.4-3.3,0.4L1345.7,797.8L1345.7,797.8z M1352.5,780.9c-1.4,0-2.6,0.1-3.4,0.4
					c-0.9,0.2-1.6,0.7-2.1,1.3c-0.5,0.6-0.9,1.4-1,2.5c-0.2,1-0.3,2.4-0.3,4.1h13.7c0-1.7-0.1-3.1-0.3-4.1c-0.2-1-0.6-1.9-1.1-2.5
					c-0.5-0.6-1.2-1-2.1-1.3C1355.1,781,1353.9,780.9,1352.5,780.9z"/>
				
					<linearGradient id="polygon38_00000079448999832717347490000000679083720632370054_" gradientUnits="userSpaceOnUse" x1="793.8513" y1="3581.5552" x2="1467.1284" y2="3722.9006" gradientTransform="matrix(1 0 0 -1 53.3709 4423.4463)">
					<stop  offset="0" style="stop-color:#F8F9FC"/>
					<stop  offset="1" style="stop-color:#F8F9FC"/>
				</linearGradient>
				
					<polygon id="polygon38_00000114765870279095385630000012101846890386478234_" style="fill:url(#polygon38_00000079448999832717347490000000679083720632370054_);" points="
					1097.9,758 1097.9,768.9 1114.8,768.9 1114.8,814.3 1127.9,814.3 1127.9,768.9 1144.8,768.9 1146.9,758 				"/>
			</g>
			
				<linearGradient id="path22_00000079483144128630652570000000340925442891500729_" gradientUnits="userSpaceOnUse" x1="793.5471" y1="3583.0039" x2="1466.8243" y2="3724.3491" gradientTransform="matrix(1 0 0 -1 53.3709 4423.4463)">
				<stop  offset="0" style="stop-color:#F8F9FC"/>
				<stop  offset="1" style="stop-color:#F8F9FC"/>
			</linearGradient>
			
				<path id="path22_00000099623959086348386530000009204162355278913152_" style="fill:url(#path22_00000079483144128630652570000000340925442891500729_);" d="
				M1377.8,731.3c0.1,1.4,0.2,2.5,0.4,3.3c0.2,0.9,0.7,1.5,1.3,2.1c0.6,0.5,1.4,0.9,2.4,1.1c1,0.2,2.3,0.3,3.8,0.3c2.2,0,4.5,0,7,0
				s5.3,0,8.4-0.1l-1.8,9.8c-2.6,0.1-5.1,0.2-7.3,0.2c-2.3,0-4.7,0-7.4,0c-3.7,0-6.9-0.4-9.3-1.2c-2.5-0.8-4.5-1.9-5.9-3.5
				c-1.5-1.5-2.5-3.5-3.1-5.9c-0.6-2.3-0.9-5.1-0.9-8.3v-4.3c0-3.3,0.3-6.2,1-8.7s1.8-4.5,3.3-6.1c1.5-1.6,3.6-2.9,6.1-3.7
				c2.5-0.8,5.6-1.2,9.3-1.2c6.6,0,11.4,1.4,14.2,4.2s4.3,6.6,4.3,11.6v1.7c0,1.7-0.1,3.2-0.3,4.3c-0.2,1.1-0.6,2-1.2,2.7
				s-1.3,1.2-2.2,1.4s-2,0.4-3.3,0.4L1377.8,731.3L1377.8,731.3z M1384.6,714.4c-1.4,0-2.6,0.1-3.4,0.4s-1.6,0.7-2.1,1.3
				s-0.9,1.4-1,2.5c-0.2,1-0.3,2.4-0.3,4.1h13.7c0-1.7-0.1-3.1-0.3-4.1c-0.2-1-0.6-1.9-1.1-2.5c-0.5-0.6-1.2-1-2.1-1.3
				C1387.1,714.5,1386,714.4,1384.6,714.4z"/>
			
				<linearGradient id="path24_00000165915788621172344050000017380501366827349659_" gradientUnits="userSpaceOnUse" x1="795.2545" y1="3574.8713" x2="1468.5316" y2="3716.2168" gradientTransform="matrix(1 0 0 -1 53.3709 4423.4463)">
				<stop  offset="0" style="stop-color:#F8F9FC"/>
				<stop  offset="1" style="stop-color:#F8F9FC"/>
			</linearGradient>
			
				<path id="path24_00000016768125694880690420000003591802974197840291_" style="fill:url(#path24_00000165915788621172344050000017380501366827349659_);" d="
				M1447.3,739.6c0,1.5-0.2,2.8-0.5,3.9s-0.8,1.9-1.5,2.5c-0.7,0.6-1.7,1.1-2.8,1.3c-1.2,0.3-2.6,0.4-4.2,0.4h-14
				c-2.9,0-5.4-0.3-7.4-0.8s-3.6-1.4-4.8-2.4c-1.2-1.1-2.1-2.4-2.6-3.9c-0.5-1.5-0.8-3.3-0.8-5.2v-1.7c0-4.4,1.3-7.5,4-9.5
				c2.6-2,6.7-3,12.1-3c2.6,0,4.8,0.2,6.4,0.6c1.6,0.4,2.9,0.9,4,1.5v-0.9c0-1.1-0.1-2.1-0.3-2.8c-0.2-0.8-0.6-1.5-1.1-2
				c-0.6-0.6-1.3-1-2.4-1.2c-1-0.3-2.4-0.4-4.2-0.4c-0.9,0-2,0-3.2,0s-2.5,0-3.8,0c-1.3,0-2.7,0-4.1,0s-2.6,0.1-3.8,0.1l1.8-9.7
				c1.5-0.1,3.4-0.1,5.8-0.1c2.3,0,5,0,8.1,0c6.6,0,11.4,1.2,14.6,3.4c3.1,2.3,4.7,6.1,4.7,11.5V739.6z M1420.9,734.6
				c0,1.5,0.4,2.6,1.3,3.3c0.9,0.7,2.4,1,4.6,1h8.4v-4.6c0-1.6-0.4-2.8-1.3-3.6c-0.9-0.8-2.7-1.2-5.5-1.2h-1.1c-2.5,0-4.2,0.3-5,1
				c-0.9,0.7-1.3,1.8-1.3,3.4L1420.9,734.6L1420.9,734.6z"/>
			
				<linearGradient id="path26_00000042016245057633681460000014493542547074916775_" gradientUnits="userSpaceOnUse" x1="797.8685" y1="3562.4194" x2="1471.1458" y2="3703.7649" gradientTransform="matrix(1 0 0 -1 53.3709 4423.4463)">
				<stop  offset="0" style="stop-color:#F8F9FC"/>
				<stop  offset="1" style="stop-color:#F8F9FC"/>
			</linearGradient>
			
				<path id="path26_00000065040171165360597870000017288040847902491779_" style="fill:url(#path26_00000042016245057633681460000014493542547074916775_);" d="
				M1454.9,747.7v-27.3c0-2.9,0.4-5.3,1.2-7.3c0.8-2,1.9-3.6,3.4-4.7c1.5-1.2,3.4-2,5.5-2.5c2.2-0.5,4.7-0.7,7.4-0.7
				c6,0,10.4,1.5,13.1,4.6c2.6-3.1,7.1-4.6,13.3-4.6c2.7,0,5.1,0.2,7.3,0.7c2.2,0.5,4,1.3,5.5,2.5c1.5,1.2,2.6,2.8,3.4,4.7
				c0.8,2,1.2,4.4,1.2,7.3v27.3h-12.6v-26.1c0-1.1-0.1-2.1-0.2-2.8c-0.1-0.8-0.4-1.5-0.8-2c-0.4-0.5-1-0.9-1.8-1.2
				c-0.8-0.2-1.8-0.4-3.1-0.4c-1.2,0-2.2,0.1-3,0.3c-0.8,0.2-1.4,0.6-1.8,1c-0.4,0.5-0.7,1.1-0.9,1.8s-0.2,1.6-0.2,2.6v26.7h-12.6
				v-26.1c0-1.1-0.1-2.1-0.2-2.8c-0.1-0.8-0.4-1.5-0.8-2c-0.4-0.5-1-0.9-1.7-1.2c-0.8-0.2-1.8-0.4-3.1-0.4s-2.4,0.1-3.1,0.4
				c-0.8,0.2-1.3,0.6-1.8,1.2c-0.4,0.5-0.7,1.2-0.8,2c-0.1,0.8-0.2,1.7-0.2,2.8v26.1L1454.9,747.7L1454.9,747.7z"/>
			
				<linearGradient id="polygon40_00000112623214699493376770000009296066073277846184_" gradientUnits="userSpaceOnUse" x1="778.6583" y1="3597.0969" x2="1451.9355" y2="3738.4421" gradientTransform="matrix(1 0 0 -1 46.6137 4423.6914)">
				<stop  offset="0" style="stop-color:#F8F9FC"/>
				<stop  offset="1" style="stop-color:#F8F9FC"/>
			</linearGradient>
			
				<polygon id="polygon40_00000166648486739793747040000007145316624868275646_" style="fill:url(#polygon40_00000112623214699493376770000009296066073277846184_);" points="
				1320,702.4 1336.9,702.4 1336.9,747.7 1350,747.7 1350,702.4 1366.9,702.4 1369,691.4 1320,691.4 			"/>
		</g>
	</g>
</g>
</svg>
