<svg id="Laag_1" data-name="Laag 1" xmlns="http://www.w3.org/2000/svg" xmlns:xlink="http://www.w3.org/1999/xlink" viewBox="0 0 315.91 149.09"><defs><style>.cls-1{fill:url(#Naamloos_verloop_20);}.cls-2{fill:url(#Naamloos_verloop_20-2);}.cls-3{fill:url(#Naamloos_verloop_20-3);}.cls-4{fill:url(#Naamloos_verloop_20-4);}.cls-5{fill:url(#Naamloos_verloop_20-5);}.cls-6{fill:url(#Naamloos_verloop_20-6);}.cls-7{fill:url(#Naamloos_verloop_20-7);}.cls-8{fill:url(#Naamloos_verloop_20-8);}.cls-9{fill:url(#Naamloos_verloop_20-9);}.cls-10{fill:url(#Naamloos_verloop_20-10);}.cls-11{fill:url(#Naamloos_verloop_20-11);}.cls-12{fill:url(#Naamloos_verloop_20-12);}.cls-13{fill:url(#Naamloos_verloop_20-13);}.cls-14{fill:url(#Naamloos_verloop_20-14);}.cls-15{fill:url(#Naamloos_verloop_20-15);}.cls-16{fill:url(#Naamloos_verloop_20-16);}.cls-17{fill:url(#Naamloos_verloop_20-17);}.cls-18{fill:url(#Naamloos_verloop_20-18);}.cls-19{fill:url(#Naamloos_verloop_20-19);}.cls-20{fill:url(#Naamloos_verloop_20-20);}</style><linearGradient id="Naamloos_verloop_20" x1="24.96" y1="514.4" x2="277.21" y2="456.82" gradientTransform="matrix(1, 0, 0, -1, 0, 596.72)" gradientUnits="userSpaceOnUse"><stop offset="0" stop-color="#0d64ad"/><stop offset="1" stop-color="#0d64ad"/></linearGradient><linearGradient id="Naamloos_verloop_20-2" x1="25.03" y1="514.73" x2="277.29" y2="457.16" xlink:href="#Naamloos_verloop_20"/><linearGradient id="Naamloos_verloop_20-3" x1="23.08" y1="506.17" x2="275.34" y2="448.6" xlink:href="#Naamloos_verloop_20"/><linearGradient id="Naamloos_verloop_20-4" x1="26.64" y1="521.77" x2="278.9" y2="464.2" xlink:href="#Naamloos_verloop_20"/><linearGradient id="Naamloos_verloop_20-5" x1="29.4" y1="533.85" x2="281.65" y2="476.28" xlink:href="#Naamloos_verloop_20"/><linearGradient id="Naamloos_verloop_20-6" x1="34.66" y1="556.93" x2="286.92" y2="499.36" xlink:href="#Naamloos_verloop_20"/><linearGradient id="Naamloos_verloop_20-7" x1="35.05" y1="558.61" x2="287.31" y2="501.04" xlink:href="#Naamloos_verloop_20"/><linearGradient id="Naamloos_verloop_20-8" x1="35.69" y1="561.44" x2="287.95" y2="503.87" xlink:href="#Naamloos_verloop_20"/><linearGradient id="Naamloos_verloop_20-9" x1="36.45" y1="564.73" x2="288.7" y2="507.16" xlink:href="#Naamloos_verloop_20"/><linearGradient id="Naamloos_verloop_20-10" x1="37.38" y1="568.81" x2="289.63" y2="511.24" xlink:href="#Naamloos_verloop_20"/><linearGradient id="Naamloos_verloop_20-11" x1="30.13" y1="537.05" x2="282.39" y2="479.48" xlink:href="#Naamloos_verloop_20"/><linearGradient id="Naamloos_verloop_20-12" x1="30.99" y1="540.84" x2="283.25" y2="483.27" xlink:href="#Naamloos_verloop_20"/><linearGradient id="Naamloos_verloop_20-13" x1="31.67" y1="543.81" x2="283.93" y2="486.24" xlink:href="#Naamloos_verloop_20"/><linearGradient id="Naamloos_verloop_20-14" x1="32.89" y1="549.14" x2="285.14" y2="491.57" xlink:href="#Naamloos_verloop_20"/><linearGradient id="Naamloos_verloop_20-15" x1="33.16" y1="550.33" x2="285.42" y2="492.76" xlink:href="#Naamloos_verloop_20"/><linearGradient id="Naamloos_verloop_20-16" x1="29.76" y1="535.45" x2="282.02" y2="477.88" xlink:href="#Naamloos_verloop_20"/><linearGradient id="Naamloos_verloop_20-17" x1="38.9" y1="575.49" x2="291.16" y2="517.92" xlink:href="#Naamloos_verloop_20"/><linearGradient id="Naamloos_verloop_20-18" x1="39.61" y1="578.6" x2="291.87" y2="521.03" xlink:href="#Naamloos_verloop_20"/><linearGradient id="Naamloos_verloop_20-19" x1="40.58" y1="582.86" x2="292.84" y2="525.29" xlink:href="#Naamloos_verloop_20"/><linearGradient id="Naamloos_verloop_20-20" x1="39.35" y1="577.07" x2="291.61" y2="519.5" gradientTransform="matrix(1, 0, 0, -1, -6.76, 596.97)" xlink:href="#Naamloos_verloop_20"/></defs><g id="g171"><g id="g42"><path id="path2" class="cls-1" d="M37.4,99.42h0A1.81,1.81,0,0,1,38.06,97L70.31,78.34a1.79,1.79,0,0,1,2.46.66h0a1.78,1.78,0,0,1-.66,2.46L39.86,100.08A1.81,1.81,0,0,1,37.4,99.42Z"/><path id="path4" class="cls-2" d="M60.57,94.26h0a1.81,1.81,0,0,1,.66-2.47l7.18-4.14a1.8,1.8,0,0,1,2.47.66h0a1.81,1.81,0,0,1-.66,2.47L63,94.92A1.8,1.8,0,0,1,60.57,94.26Z"/><path id="path6" class="cls-3" d="M51.64,99.42h0A1.81,1.81,0,0,1,52.3,97L55,95.4a1.81,1.81,0,0,1,2.47.66h0a1.8,1.8,0,0,1-.66,2.47l-2.68,1.55A1.82,1.82,0,0,1,51.64,99.42Z"/><path id="path8" class="cls-4" d="M44.74,86.71h0a1.8,1.8,0,0,1,.66-2.46l15.79-9.12a1.81,1.81,0,0,1,2.47.66h0A1.81,1.81,0,0,1,63,78.26L47.21,87.37A1.81,1.81,0,0,1,44.74,86.71Z"/><path id="path10" class="cls-5" d="M72.78,76a3.88,3.88,0,0,1,2.75,4.75L74.41,84.9a3.23,3.23,0,0,0,3.93,4.2,3.26,3.26,0,0,0,2.3-2.55,6,6,0,0,1,2.89-4.08,7,7,0,0,1-7.32,10.4,5,5,0,0,0-3.37.57l-8.37,4.83a4.88,4.88,0,0,0,4,2H92.51a4.93,4.93,0,0,0,4.28-2.47l12-20.85a4.93,4.93,0,0,0,0-4.93l-12-20.82a5,5,0,0,0-4.28-2.46H68.44a4.94,4.94,0,0,0-4.27,2.46l-12,20.85a5,5,0,0,0-.3,4.3l8.83-5.1a4.63,4.63,0,0,0,2-2.25,6.9,6.9,0,0,1,3-3.43,7,7,0,0,1,9.58,2.56,5.93,5.93,0,0,1-5,.47,3.23,3.23,0,1,0-1.66,6.22Zm9.11-15.36a3.23,3.23,0,0,0-1.57,2.23,6,6,0,0,1-2.89,4.08A7,7,0,1,1,87,69.5a5.91,5.91,0,0,1-.46-5,3.24,3.24,0,0,0-4.66-3.89ZM95.28,83.8a7,7,0,0,1-9.58-2.56,5.93,5.93,0,0,1,5-.47,3.21,3.21,0,0,0,2.71-.24,3.24,3.24,0,0,0-1-6,6,6,0,0,1-4.09-2.89,7,7,0,0,1,7,12.15Z"/><path id="path12" class="cls-6" d="M128.77,52.38h8.34a14.84,14.84,0,0,1,4.34.55,5.82,5.82,0,0,1,4.18,4.42,16.06,16.06,0,0,1,.42,3.9v2.41a15.58,15.58,0,0,1-.42,3.83,6.38,6.38,0,0,1-1.43,2.8A6.11,6.11,0,0,1,141.48,72a13.75,13.75,0,0,1-4.28.56h-8.42V52.38Zm4.59,16.27h3.37a8.4,8.4,0,0,0,2.1-.22,2.68,2.68,0,0,0,1.38-.77,3.28,3.28,0,0,0,.75-1.53,12.18,12.18,0,0,0,.22-2.5V61.28a12,12,0,0,0-.22-2.5,3.39,3.39,0,0,0-.75-1.52,2.91,2.91,0,0,0-1.38-.77,8.83,8.83,0,0,0-2.1-.21h-3.37Z"/><path id="path14" class="cls-7" d="M153.09,72.56h-4.51V63.24a7.64,7.64,0,0,1,.4-2.66,3.94,3.94,0,0,1,1.2-1.73,4.91,4.91,0,0,1,2-.92,13.58,13.58,0,0,1,2.79-.26h1.6c.53,0,1.12,0,1.8.06l-.68,3.66c-.17,0-.49,0-.94,0h-1.33a4.52,4.52,0,0,0-1.23.14,1.41,1.41,0,0,0-.72.42,1.44,1.44,0,0,0-.33.75,7,7,0,0,0-.07,1.09v8.82Z"/><path id="path16" class="cls-8" d="M166.5,57.28a14.23,14.23,0,0,1,3.37.34,4.74,4.74,0,0,1,2.25,1.16A4.79,4.79,0,0,1,173.38,61a12.17,12.17,0,0,1,.4,3.41v1.55a12,12,0,0,1-.4,3.38,4.65,4.65,0,0,1-1.26,2.18,4.89,4.89,0,0,1-2.25,1.17,16,16,0,0,1-6.75,0,5.16,5.16,0,0,1-2.27-1.17,4.8,4.8,0,0,1-1.27-2.18,12.46,12.46,0,0,1-.39-3.38V64.37a12.59,12.59,0,0,1,.39-3.41,4.75,4.75,0,0,1,1.27-2.18,5,5,0,0,1,2.27-1.16A14.32,14.32,0,0,1,166.5,57.28Zm2.72,7a10.55,10.55,0,0,0-.12-1.78,2,2,0,0,0-.42-1,1.57,1.57,0,0,0-.84-.49,5.56,5.56,0,0,0-1.34-.13,5.45,5.45,0,0,0-1.34.13,1.61,1.61,0,0,0-.84.49,2.11,2.11,0,0,0-.45,1,10.55,10.55,0,0,0-.12,1.78V66a10.68,10.68,0,0,0,.12,1.79,2.05,2.05,0,0,0,.45,1,1.57,1.57,0,0,0,.84.49,7,7,0,0,0,2.68,0,1.61,1.61,0,0,0,.84-.49,2,2,0,0,0,.42-1,10.68,10.68,0,0,0,.12-1.79Z"/><path id="path18" class="cls-9" d="M176.25,72.56V62.87a7.48,7.48,0,0,1,.39-2.63,3.87,3.87,0,0,1,1.23-1.72,5.15,5.15,0,0,1,2.17-1,17.91,17.91,0,0,1,6.42,0,5.21,5.21,0,0,1,2.17,1,3.94,3.94,0,0,1,1.23,1.72,7.43,7.43,0,0,1,.4,2.63v9.69h-4.51V63.21a4.85,4.85,0,0,0-.09-1,1.43,1.43,0,0,0-.34-.71,1.51,1.51,0,0,0-.75-.42,6.77,6.77,0,0,0-2.64,0,1.47,1.47,0,0,0-.75.42,1.35,1.35,0,0,0-.34.71,5.73,5.73,0,0,0-.09,1v9.35Z"/><path id="path20" class="cls-10" d="M197.23,66.66a5.12,5.12,0,0,0,.16,1.2,1.52,1.52,0,0,0,.45.74,1.83,1.83,0,0,0,.87.38,7.34,7.34,0,0,0,1.36.1h2.51l3,0L205,72.56q-1.42.06-2.64.06h-2.66a11.38,11.38,0,0,1-3.35-.41A5,5,0,0,1,194.17,71a4.71,4.71,0,0,1-1.12-2.11,11.68,11.68,0,0,1-.33-3V64.35a11.87,11.87,0,0,1,.36-3.11,5,5,0,0,1,1.19-2.2,5.11,5.11,0,0,1,2.18-1.32,10.66,10.66,0,0,1,3.34-.45c2.37,0,4.08.5,5.1,1.49a5.59,5.59,0,0,1,1.53,4.16v.59a9.08,9.08,0,0,1-.11,1.53,2.18,2.18,0,0,1-.42,1,1.48,1.48,0,0,1-.78.52,4.12,4.12,0,0,1-1.19.13h-6.69Zm2.44-6.06a4.66,4.66,0,0,0-1.24.13,1.37,1.37,0,0,0-.74.45,1.91,1.91,0,0,0-.36.89,8.37,8.37,0,0,0-.1,1.47h4.9a9.66,9.66,0,0,0-.09-1.47,1.83,1.83,0,0,0-.39-.89,1.44,1.44,0,0,0-.75-.45A4.62,4.62,0,0,0,199.67,60.6Z"/><path id="path28" class="cls-11" d="M162,92l2.18-10.15h4.37l-4.31,14.83h-4.39l-2.21-9.36-2.27,9.36h-4.51l-4.25-14.83h4.57L153.31,92l2.43-10.12h3.89Z"/><path id="path30" class="cls-12" d="M173.85,90.76A5.11,5.11,0,0,0,174,92a1.41,1.41,0,0,0,.45.74,1.8,1.8,0,0,0,.87.39,8.39,8.39,0,0,0,1.36.09h2.51l3,0-.65,3.52c-.94,0-1.82.06-2.63.06h-2.66a11.3,11.3,0,0,1-3.35-.42,4.85,4.85,0,0,1-2.13-1.24,4.53,4.53,0,0,1-1.12-2.1,11.79,11.79,0,0,1-.33-3V88.44a12.34,12.34,0,0,1,.35-3.11,5.06,5.06,0,0,1,1.2-2.2,5.11,5.11,0,0,1,2.18-1.32,10.64,10.64,0,0,1,3.33-.45c2.38,0,4.09.5,5.1,1.49A5.55,5.55,0,0,1,183,87v.59a9.08,9.08,0,0,1-.11,1.53,2.15,2.15,0,0,1-.41,1,1.57,1.57,0,0,1-.78.51,4.09,4.09,0,0,1-1.19.14h-6.69Zm2.45-6.07a4.66,4.66,0,0,0-1.24.13,1.43,1.43,0,0,0-.74.45,1.81,1.81,0,0,0-.36.89,8.37,8.37,0,0,0-.1,1.47h4.9a8.37,8.37,0,0,0-.1-1.47,1.82,1.82,0,0,0-.38-.89,1.55,1.55,0,0,0-.75-.45A5.14,5.14,0,0,0,176.3,84.69Z"/><path id="path32" class="cls-13" d="M185.39,96.66V87a7.46,7.46,0,0,1,.4-2.63A3.79,3.79,0,0,1,187,82.61a5,5,0,0,1,2.17-1,17.86,17.86,0,0,1,6.41,0,5.1,5.1,0,0,1,2.17,1A3.88,3.88,0,0,1,199,84.33,7.68,7.68,0,0,1,199.4,87v9.7h-4.51V87.3a4.85,4.85,0,0,0-.09-1,1.42,1.42,0,0,0-.33-.71,1.56,1.56,0,0,0-.75-.42,6.82,6.82,0,0,0-2.65,0,1.51,1.51,0,0,0-.75.42,1.42,1.42,0,0,0-.33.71,4.91,4.91,0,0,0-.09,1v9.36Z"/><path id="path34" class="cls-14" d="M206.62,85.37v5.36a6.45,6.45,0,0,0,.09,1.2,1.42,1.42,0,0,0,.34.74,1.25,1.25,0,0,0,.69.37,5.33,5.33,0,0,0,1.17.09h2.69l-.68,3.55h-2.57a14.87,14.87,0,0,1-3.12-.27,3.86,3.86,0,0,1-1.91-.94,3.41,3.41,0,0,1-.95-1.79,13.35,13.35,0,0,1-.26-2.86V78.4l4.51-.66v4.09h5.16l-.68,3.54Z"/><path id="path36" class="cls-15" d="M217.59,90.76a5.11,5.11,0,0,0,.16,1.19,1.49,1.49,0,0,0,.46.74,1.76,1.76,0,0,0,.86.39,8.48,8.48,0,0,0,1.36.09h2.51l3,0-.65,3.52q-1.42.06-2.64.06H220a11.23,11.23,0,0,1-3.34-.42,4.85,4.85,0,0,1-2.13-1.24,4.55,4.55,0,0,1-1.13-2.1,11.79,11.79,0,0,1-.33-3V88.44a11.87,11.87,0,0,1,.36-3.11,5,5,0,0,1,1.19-2.2,5.24,5.24,0,0,1,2.18-1.32,10.71,10.71,0,0,1,3.34-.45q3.57,0,5.1,1.49A5.55,5.55,0,0,1,226.78,87v.59a9.08,9.08,0,0,1-.11,1.53,2.39,2.39,0,0,1-.41,1,1.62,1.62,0,0,1-.78.51,4.16,4.16,0,0,1-1.2.14h-6.69ZM220,84.69a4.57,4.57,0,0,0-1.23.13,1.35,1.35,0,0,0-.74.45,1.82,1.82,0,0,0-.37.89,8.37,8.37,0,0,0-.1,1.47h4.91a8.37,8.37,0,0,0-.1-1.47,1.83,1.83,0,0,0-.39-.89,1.46,1.46,0,0,0-.75-.45A5,5,0,0,0,220,84.69Z"/><polygon id="polygon38" class="cls-16" points="128.77 76.47 128.77 80.41 134.83 80.41 134.83 96.66 139.5 96.66 139.5 80.41 145.57 80.41 146.33 76.47 128.77 76.47"/></g><path id="path22" class="cls-17" d="M229.09,66.91a5.11,5.11,0,0,0,.16,1.19,1.47,1.47,0,0,0,.45.74,1.8,1.8,0,0,0,.87.39,8.39,8.39,0,0,0,1.36.09h2.51l3,0-.65,3.52q-1.42.06-2.64.06h-2.66a11.35,11.35,0,0,1-3.35-.42A4.85,4.85,0,0,1,226,71.21a4.53,4.53,0,0,1-1.12-2.1,11.79,11.79,0,0,1-.33-3V64.59a11.87,11.87,0,0,1,.36-3.11,5,5,0,0,1,1.19-2.2A5.11,5.11,0,0,1,228.31,58a10.66,10.66,0,0,1,3.34-.45c2.37,0,4.08.5,5.1,1.49a5.59,5.59,0,0,1,1.53,4.16v.59a9.08,9.08,0,0,1-.11,1.53,2.27,2.27,0,0,1-.42,1,1.57,1.57,0,0,1-.78.51,4.09,4.09,0,0,1-1.19.14h-6.69Zm2.44-6.07a4.66,4.66,0,0,0-1.24.13,1.43,1.43,0,0,0-.74.45,1.91,1.91,0,0,0-.36.89,8.37,8.37,0,0,0-.1,1.47H234a8.37,8.37,0,0,0-.1-1.47,1.74,1.74,0,0,0-.38-.89,1.5,1.5,0,0,0-.75-.45A4.62,4.62,0,0,0,231.53,60.84Z"/><path id="path24" class="cls-18" d="M254,69.89a5,5,0,0,1-.17,1.39,1.83,1.83,0,0,1-.55.9,2.28,2.28,0,0,1-1,.49,6.48,6.48,0,0,1-1.5.14h-5a10,10,0,0,1-2.65-.3,4.3,4.3,0,0,1-1.72-.88,3.23,3.23,0,0,1-.93-1.4,5.69,5.69,0,0,1-.29-1.87v-.6a4,4,0,0,1,1.42-3.42A7.23,7.23,0,0,1,246,63.28a9.84,9.84,0,0,1,2.28.22,6.11,6.11,0,0,1,1.43.55v-.32a4.35,4.35,0,0,0-.1-1,1.58,1.58,0,0,0-.39-.72,2,2,0,0,0-.85-.44,6,6,0,0,0-1.49-.14h-4l-1.36,0,.65-3.48,2.07,0h2.89a8.92,8.92,0,0,1,5.23,1.23A4.76,4.76,0,0,1,254,63.29Zm-9.49-1.79a1.44,1.44,0,0,0,.45,1.19,2.69,2.69,0,0,0,1.65.37h3V68a1.69,1.69,0,0,0-.46-1.29,3.19,3.19,0,0,0-2-.42h-.39a3.14,3.14,0,0,0-1.8.36,1.46,1.46,0,0,0-.46,1.23v.21Z"/><path id="path26" class="cls-19" d="M256.75,72.81V63a6.94,6.94,0,0,1,.43-2.62,3.87,3.87,0,0,1,1.23-1.7,4.89,4.89,0,0,1,2-.91,11.9,11.9,0,0,1,2.66-.27,6,6,0,0,1,4.7,1.65c.95-1.09,2.54-1.65,4.77-1.65a11.41,11.41,0,0,1,2.6.27,5,5,0,0,1,2,.91,4,4,0,0,1,1.23,1.7,6.92,6.92,0,0,1,.42,2.62V72.8h-4.5V63.44a5.84,5.84,0,0,0-.07-1,1.49,1.49,0,0,0-.3-.71,1.29,1.29,0,0,0-.64-.42,3.8,3.8,0,0,0-1.13-.13,4,4,0,0,0-1.07.12,1.28,1.28,0,0,0-.65.37,1.43,1.43,0,0,0-.32.64,4.09,4.09,0,0,0-.09.92V72.8h-4.5V63.44a5.84,5.84,0,0,0-.07-1,1.48,1.48,0,0,0-.29-.71,1.23,1.23,0,0,0-.62-.42,4.93,4.93,0,0,0-2.25,0,1.33,1.33,0,0,0-.64.42,1.49,1.49,0,0,0-.3.71,5.92,5.92,0,0,0-.07,1V72.8h-4.49Z"/><polygon id="polygon40" class="cls-20" points="208.39 56.56 214.45 56.56 214.45 72.81 219.13 72.81 219.13 56.56 225.19 56.56 225.96 52.62 208.39 52.62 208.39 56.56"/></g></svg>