<svg id="Laag_1" data-name="Laag 1" xmlns="http://www.w3.org/2000/svg" viewBox="0 0 315.91 149.09"><defs><style>.cls-1{fill:#1e1e1c;}.cls-2{fill:#e52521;}</style></defs><path class="cls-1" d="M65.8,85.7H57.33V74.57H65.8V77H59.92v2h5.6v2.21h-5.6v1.92H65.8Z"/><path class="cls-1" d="M75.89,85.7H67.63V74.57h2.85v8.52h5.41Z"/><path class="cls-1" d="M85.43,85.7H77V74.57h8.48V77H79.55v2h5.59v2.21H79.55v1.92h5.88Z"/><path class="cls-1" d="M91.36,77a4.7,4.7,0,0,0-.53,0,1.7,1.7,0,0,0-.47.1.84.84,0,0,0-.35.22.58.58,0,0,0-.16.39v4.1a2.74,2.74,0,0,0,0,.5,1.43,1.43,0,0,0,.12.43,1.28,1.28,0,0,0,.24.31.6.6,0,0,0,.38.12h5.21V85.7H89.92a2.77,2.77,0,0,1-.87-.16,3.06,3.06,0,0,1-.82-.43,2.68,2.68,0,0,1-.64-.66,2.17,2.17,0,0,1-.33-.84V76.72a1.65,1.65,0,0,1,.27-.86,2.8,2.8,0,0,1,.66-.67,3.27,3.27,0,0,1,.85-.44,3.12,3.12,0,0,1,.91-.18h5.89V77Z"/><path class="cls-1" d="M107.31,77H103.7V85.7h-3V77H97.1V74.57h10.21Z"/><path class="cls-1" d="M115,74.57q.62,0,1.23.12a3.22,3.22,0,0,1,1.09.33,2.07,2.07,0,0,1,.78.72,2.34,2.34,0,0,1,.3,1.27v.82a7.86,7.86,0,0,1,0,.83,2,2,0,0,1-.2.76,1.5,1.5,0,0,1-.47.56,1.43,1.43,0,0,1-.85.22,4.48,4.48,0,0,1,.6.35,1.86,1.86,0,0,1,.49.48,1.31,1.31,0,0,1,.26.55,3.61,3.61,0,0,1,0,.59V85.7h-2.82V82.59a1.15,1.15,0,0,0-.2-.55,1,1,0,0,0-.37-.31,1.61,1.61,0,0,0-.5-.14,5.52,5.52,0,0,0-.58,0h-1.17c-.39,0-.78,0-1.17,0V85.7h-2.65V74.57Zm.55,3.43a3.16,3.16,0,0,0,0-.61.67.67,0,0,0-.16-.35.46.46,0,0,0-.26-.17,1.38,1.38,0,0,0-.38,0h-3.35v2.42h3.35a.89.89,0,0,0,.47-.1.57.57,0,0,0,.25-.26,1.23,1.23,0,0,0,.11-.41C115.56,78.33,115.57,78.17,115.57,78Z"/><path class="cls-1" d="M123.1,85.7h-2.85V74.57h2.85Z"/><path class="cls-1" d="M129,77a4.7,4.7,0,0,0-.53,0,1.7,1.7,0,0,0-.47.1.84.84,0,0,0-.35.22.63.63,0,0,0-.16.39v4.1a4,4,0,0,0,0,.5,1.44,1.44,0,0,0,.13.43.92.92,0,0,0,.24.31.57.57,0,0,0,.37.12h5.22V85.7H127.6a2.78,2.78,0,0,1-.88-.16,3.21,3.21,0,0,1-.82-.43,2.68,2.68,0,0,1-.64-.66,2.17,2.17,0,0,1-.33-.84V76.72a1.57,1.57,0,0,1,.28-.86,2.58,2.58,0,0,1,.65-.67,3.17,3.17,0,0,1,.86-.44,3,3,0,0,1,.9-.18h5.9V77Z"/><path class="cls-1" d="M142.15,85.7V83.31h5.21a.7.7,0,0,0,.38-.1A.8.8,0,0,0,148,83a1.11,1.11,0,0,0,.18-.36,1.41,1.41,0,0,0,0-.4,1.06,1.06,0,0,0,0-.35,1.15,1.15,0,0,0-.14-.32,1,1,0,0,0-.26-.23.79.79,0,0,0-.38-.09H143.5a1.47,1.47,0,0,1-.65-.15,1.78,1.78,0,0,1-.54-.39,2,2,0,0,1-.36-.58,1.93,1.93,0,0,1-.13-.69V76.15a1.47,1.47,0,0,1,.35-.87,1.84,1.84,0,0,1,.71-.47,3.67,3.67,0,0,1,.91-.2c.32,0,.64,0,1,0h5.84v2.2h-5.7a.37.37,0,0,0-.38.28,2.12,2.12,0,0,0-.08.64,5.55,5.55,0,0,0,0,.65.64.64,0,0,0,.16.38.68.68,0,0,0,.37.18,3.8,3.8,0,0,0,.65,0h3.17l.46,0,.46,0a1.29,1.29,0,0,1,.92.44,2.1,2.1,0,0,1,.43,1c0,.13,0,.26,0,.37v2.93a1.59,1.59,0,0,1-.24.88,1.86,1.86,0,0,1-.68.62,3.73,3.73,0,0,1-1.07.37,7.24,7.24,0,0,1-1.38.12Z"/><path class="cls-1" d="M162.6,74.57v8.05a3.09,3.09,0,0,1-.31,1.4,2.45,2.45,0,0,1-1,1,3.51,3.51,0,0,1-1.53.56,14.39,14.39,0,0,1-1.62.09h-.51l-1.25,0a7.27,7.27,0,0,1-1-.09,3.75,3.75,0,0,1-.8-.19,2.85,2.85,0,0,1-.68-.33A2.35,2.35,0,0,1,153,84a3.38,3.38,0,0,1-.29-1.38V74.57h2.77V82a1.09,1.09,0,0,0,.49,1,3,3,0,0,0,.78.26,5.67,5.67,0,0,0,.94.08,5.43,5.43,0,0,0,.92-.08,3.08,3.08,0,0,0,.76-.26,1.11,1.11,0,0,0,.49-1V74.57Z"/><path class="cls-1" d="M174.21,77V79a3.16,3.16,0,0,1-.34,1.5,2,2,0,0,1-.93.93,2.82,2.82,0,0,1-1,.26c-.39,0-.83,0-1.32,0H167v4h-2.55V74.57h4.78a9.58,9.58,0,0,1,3.83.54,1.72,1.72,0,0,1,.87.7A2.27,2.27,0,0,1,174.21,77Zm-2.85,1.19v-.49a.71.71,0,0,0-.47-.73,5.55,5.55,0,0,0-1.72-.17H167v2.48h2.17a9.43,9.43,0,0,0,1,0,2.19,2.19,0,0,0,.65-.16.93.93,0,0,0,.39-.37A1.19,1.19,0,0,0,171.36,78.22Z"/><path class="cls-1" d="M184.09,85.7h-8.47V74.57h8.47V77h-5.88v2h5.6v2.21h-5.6v1.92h5.88Z"/><path class="cls-1" d="M192.15,74.57a12.2,12.2,0,0,1,1.23.12,3.16,3.16,0,0,1,1.09.33,2,2,0,0,1,.79.72,2.44,2.44,0,0,1,.29,1.27v.82a7.81,7.81,0,0,1,0,.83,2.49,2.49,0,0,1-.2.76,1.44,1.44,0,0,1-.48.56,1.4,1.4,0,0,1-.84.22,6.21,6.21,0,0,1,.6.35,1.83,1.83,0,0,1,.48.48,1.31,1.31,0,0,1,.26.55,2.76,2.76,0,0,1,0,.59V85.7h-2.82V82.59a1.15,1.15,0,0,0-.19-.55,1,1,0,0,0-.38-.31,1.47,1.47,0,0,0-.5-.14,5.52,5.52,0,0,0-.58,0h-1.17c-.38,0-.77,0-1.17,0V85.7h-2.65V74.57ZM192.7,78a2.52,2.52,0,0,0,0-.61.76.76,0,0,0-.15-.35.5.5,0,0,0-.26-.17,1.38,1.38,0,0,0-.38,0H188.5v2.42h3.36a.85.85,0,0,0,.46-.1.59.59,0,0,0,.26-.26,1.23,1.23,0,0,0,.1-.41A3.7,3.7,0,0,0,192.7,78Z"/><path class="cls-1" d="M206.83,83.43a1.91,1.91,0,0,1-1.19,1.91,3.47,3.47,0,0,1-1.21.31c-.45,0-1,0-1.61,0h-5.44V74.57h4.67a15,15,0,0,1,2.17.13,3.42,3.42,0,0,1,1.34.41,2,2,0,0,1,.89,1.84v1.37a1.41,1.41,0,0,1-.13.64,1.39,1.39,0,0,1-.33.46,3.27,3.27,0,0,1-.48.35c-.18.11-.37.21-.55.3a2.4,2.4,0,0,1,1.27.54,1.35,1.35,0,0,1,.6,1.1Zm-3-5.66a.92.92,0,0,0-.27-.76.86.86,0,0,0-.48-.16c-.2,0-.49,0-.89,0H200V79.1h2.23a5,5,0,0,0,.84-.06.81.81,0,0,0,.78-1ZM204,82a.94.94,0,0,0-.08-.43,1.09,1.09,0,0,0-.24-.24,2.15,2.15,0,0,0-1.21-.27H200v2.2h2.71a2,2,0,0,0,.34,0l.32-.05a2.23,2.23,0,0,0,.24-.08.6.6,0,0,0,.3-.31,1.33,1.33,0,0,0,.08-.45Z"/><path class="cls-1" d="M211.43,85.7h-2.85V74.57h2.85Z"/><path class="cls-1" d="M213.26,74.57h2.62v4.22h.43l3.7-4.22h3.7l-4.51,5v.28l4.87,5.9H220.2l-4-5h-.34v5h-2.59Z"/><path class="cls-1" d="M233.45,85.7H225V74.57h8.47V77h-5.88v2h5.6v2.21h-5.6v1.92h5.88Z"/><path class="cls-1" d="M250.86,75.8H247v9.9h-1.29V75.8h-3.88V74.56h9Z"/><path class="cls-1" d="M267.65,74.57,264.07,85.7h-1.49l-3-9.58q-.75,2.4-1.53,4.79t-1.52,4.79H255l-3.31-11.13h1.56l2.57,9.53c.24-.81.49-1.6.74-2.39l.75-2.37c.24-.79.49-1.58.74-2.37s.5-1.59.74-2.4h1.71l2.92,9.55,2.75-9.55Z"/><path class="cls-1" d="M270.12,75.8v3.68h6.15v1.23h-6.15v3.83h6.43V85.7h-7.7V74.57h7.7V75.8Z"/><path class="cls-1" d="M287.39,74.57V85.7H285.5l-5.85-9.31V85.7h-1.27V74.57H280l6.05,9.59V74.57Z"/><path class="cls-1" d="M298,75.8H294.1v9.9h-1.29V75.8h-3.88V74.56h9Z"/><path class="cls-1" d="M300.7,75.8v3.68h6.15v1.23H300.7v3.83h6.43V85.7h-7.7V74.57h7.7V75.8Z"/><polygon class="cls-2" points="33.1 74.54 33.1 74.54 22.82 74.54 8.78 104.38 33.1 74.54"/><polygon class="cls-2" points="33.1 74.54 33.1 74.54 43.38 74.54 57.42 44.71 33.1 74.54"/></svg>