<svg id="Laag_1" data-name="Laag 1" xmlns="http://www.w3.org/2000/svg" viewBox="0 0 315.91 149.09"><defs><style>.cls-1{fill:#7bb938;}</style></defs><path class="cls-1" d="M44.74,50.06v-1.8a11.37,11.37,0,0,0,1.74-.16,2.48,2.48,0,0,0,1.29-.71,2.32,2.32,0,0,0,.52-1,2.1,2.1,0,0,0,.1-.53h2.2V59.3h-2.7V50.06Z"/><path class="cls-1" d="M59,89.32V59.16h6.26v11.5H76.94V59.16H83.2V89.32H76.94V75.86H65.22V89.32Z"/><path class="cls-1" d="M110.51,114H31.65V35.11h78.86Zm-74.19-4.66h69.53V39.78H36.32Z"/><path class="cls-1" d="M125.14,44.45h-2a2,2,0,0,0,0,4h2a2,2,0,1,0,0-4Z"/><path class="cls-1" d="M126.07,39.19h7.77a2,2,0,1,0,0-3.95h-7.77a2,2,0,1,0,0,3.95Z"/><path class="cls-1" d="M147.79,48.41h3.42L150.7,52c-.16,1.27-.57,1.63-1.85,1.63h-3.14c-1.28,0-1.69-.48-1.5-1.83l1.5-10.8c.19-1.35.74-1.83,2-1.83h8.5l.58-4H140a2,2,0,0,0,0,3.95h1.51c-.05.22-.1.44-.14.68l-.63,4.58h-9.52a2,2,0,0,0,0,4h9L139.51,53c0,.25,0,.46-.06.69h-3.84a2,2,0,1,0,0,3.95h14.58c3.1,0,4.44-1.25,4.86-4.28l1.25-8.89h-8Z"/><path class="cls-1" d="M181.49,42.21c-.38,2.72-1.6,4-4.15,4.25,2.62.35,3.23,2,2.91,4.48l-.93,6.68h-4.54l1-7.26c.19-1.34-.22-2-1.6-2H169.6l-1.28,9.21h-4.54l3.13-22.38h11c3.14,0,4.32,1.37,3.87,4.47Zm-4.63.45.22-1.67c.19-1.28-.22-1.79-1.44-1.79h-4.76l-.74,5.25h4.73C176.19,44.45,176.67,43.94,176.86,42.66Z"/><path class="cls-1" d="M191.85,35.24h14.74l-.57,4h-10.2l-.74,5.25h7.32l-.54,4h-7.32l-.74,5.25H204l-.54,4H188.72Z"/><path class="cls-1" d="M215.55,35.24h14.74l-.58,4h-10.2l-.73,5.25h7.32l-.55,4h-7.32l-.73,5.25h10.2l-.55,4H212.41Z"/><path class="cls-1" d="M242.76,41l-2.31,16.59h-4.57l2.5-17.75c.41-3.1,2.11-4.63,5.3-4.63h6.24c3.2,0,4.44,1.53,4,4.63l-2.47,17.75h-4.54L249.22,41c.19-1.35-.23-1.83-1.51-1.83h-2.94C243.49,39.2,243,39.68,242.76,41Z"/><path class="cls-1" d="M164.74,63.39h14.74l-.58,4H168.7L168,72.6h7.32l-.54,4h-7.33l-.73,5.25h10.2l-.54,4H161.6Z"/><path class="cls-1" d="M196.11,85.77l1.24-9.21h-6.42l-1.28,9.21h-4.58L187.57,68c.41-3.11,2.11-4.64,5.31-4.64h6.23c3.2,0,4.45,1.53,4,4.64l-2.46,17.74ZM194,67.35c-1.28,0-1.82.52-2,1.83l-.48,3.42h6.46l.48-3.42c.19-1.35-.23-1.83-1.5-1.83Z"/><path class="cls-1" d="M232.94,63.39c3.2,0,4.45,1.53,4,4.64l-2.46,17.74h-4.54l2.3-16.59c.19-1.35-.23-1.83-1.51-1.83h-1.88c-1.28,0-1.82.48-2,1.83l-2.3,16.59H220l2.3-16.59c.19-1.35-.22-1.83-1.47-1.83h-1.88c-1.28,0-1.83.48-2,1.83l-2.3,16.59h-4.57L212.54,68c.42-3.11,2.11-4.64,5.31-4.64h2.91c2.94,0,4.12,1,4.16,3.36.7-2.37,2.17-3.36,5.11-3.36Z"/><path class="cls-1" d="M125.14,110h-2a2,2,0,1,0,0,4h2a2,2,0,1,0,0-4Z"/><path class="cls-1" d="M142.12,102.73a2,2,0,0,0-2-2h-7.77a2,2,0,1,0,0,3.95h7.77A2,2,0,0,0,142.12,102.73Z"/><path class="cls-1" d="M131,93.52a2,2,0,0,0-2-2h-2a2,2,0,1,0,0,3.95h2A2,2,0,0,0,131,93.52Z"/><path class="cls-1" d="M154.42,91.54H135.9a2,2,0,0,0,0,3.95h.35v0h9.59l-2,14.46h-7.64a2,2,0,1,0,0,4h11.63l2.59-18.41h5.5l.58-4Z"/><path class="cls-1" d="M178.23,113.92c-2.94,0-4.15-1-4.19-3.35-.7,2.36-2.14,3.35-5.08,3.35h-2.91c-3.2,0-4.48-1.53-4-4.63l2.49-17.75h4.58l-2.37,16.6c-.16,1.34.26,1.82,1.54,1.82h1.88c1.25,0,1.79-.48,2-1.82l2.34-16.6H179l-2.33,16.6c-.2,1.34.22,1.82,1.5,1.82H180c1.31,0,1.86-.48,2-1.82l2.36-16.6h4.54l-2.49,17.75c-.45,3.1-2.11,4.63-5.31,4.63Z"/><path class="cls-1" d="M198.57,91.54h14.74l-.58,4h-10.2l-.73,5.24h7.32l-.54,4h-7.33l-.73,5.25h10.2l-.55,4H195.43Z"/><path class="cls-1" d="M225.78,97.33l-2.3,16.59H218.9l2.5-17.74c.41-3.1,2.11-4.64,5.31-4.64h6.23c3.2,0,4.45,1.54,4,4.64l-2.46,17.74h-4.54l2.3-16.59c.19-1.34-.23-1.82-1.51-1.82h-2.94C226.51,95.51,226,96,225.78,97.33Z"/><path class="cls-1" d="M260.7,95.51h-5.5l-2.59,18.41h-4.54l2.55-18.41h-5.53l.58-4h15.6Z"/><path class="cls-1" d="M269.52,91.54h14.74l-.57,4h-10.2l-.74,5.24h7.32l-.54,4h-7.32l-.74,5.25h10.2l-.54,4H266.39Z"/><path class="cls-1" d="M134.23,81.82H123a2,2,0,1,0,0,4h11.25a2,2,0,1,0,0-4Z"/><path class="cls-1" d="M134.35,72.6h-2a2,2,0,1,0,0,4h2a2,2,0,1,0,0-4Z"/><path class="cls-1" d="M154.67,63.39H136.43a2,2,0,0,0,0,4h9.41l-.73,5.25h-4.82a2,2,0,0,0,0,4h4.27l-.73,5.26h-1a2,2,0,1,0,0,4h5l2.59-18.42h5.5l.58-4Z"/></svg>