<svg xmlns="http://www.w3.org/2000/svg" viewBox="0 0 583.26 197.9"><defs><style>.cls-1{fill:#5a1c74;}</style></defs><g id="White_Black" data-name="White &amp; Black"><path class="cls-1" d="M195.19,117.52a5.63,5.63,0,0,0-.79-.36,6.77,6.77,0,0,0-5.17.24.84.84,0,0,1-1-.17L154.42,83.38a22,22,0,0,0-31.13,0,1.71,1.71,0,0,0,0,2.41,1.7,1.7,0,0,0,2.41,0,18.63,18.63,0,0,1,26.31,0l33.85,33.85a.82.82,0,0,1,.17,1,6.77,6.77,0,0,0-.23,5.19,5.63,5.63,0,0,0,.36.79,6.74,6.74,0,0,0,7.62,3.34,6.07,6.07,0,0,0,1.68-.71,6.69,6.69,0,0,0-.27-11.69Zm-.8,8.24a3.27,3.27,0,1,1,1-2.32A3.25,3.25,0,0,1,194.39,125.76Z"/><path class="cls-1" d="M155.54,112.11a1.7,1.7,0,0,0-2.41,0,18.63,18.63,0,0,1-26.31,0L93,78.25a.84.84,0,0,1-.17-1,6.68,6.68,0,1,0-6,3.83,6.58,6.58,0,0,0,2.84-.64.86.86,0,0,1,1,.17l33.85,33.86a22,22,0,0,0,31.13,0A1.7,1.7,0,0,0,155.54,112.11ZM84.44,76.77a3.28,3.28,0,0,1,2.32-5.59,3.27,3.27,0,1,1-2.32,5.59Z"/><path class="cls-1" d="M222.78,119.44a5.33,5.33,0,0,0-.85-.37,6.75,6.75,0,0,0-5.09.26.85.85,0,0,1-1-.17l-5.35-5.35a9.18,9.18,0,0,0-6.49-2.68h-7.16a5.72,5.72,0,0,1-4.08-1.69L160.58,77.22A30.75,30.75,0,0,0,117.37,77l-.07,0-.24.23a30.94,30.94,0,0,0-5.7,7.92,1.73,1.73,0,0,0,.43,2.15,1.69,1.69,0,0,0,2.58-.57,27.55,27.55,0,0,1,4.88-6.86l.06,0,.23-.24a27.35,27.35,0,0,1,38.63,0l32.22,32.22a9.1,9.1,0,0,0,6.49,2.68H204a5.73,5.73,0,0,1,4.08,1.69l5.35,5.35a.84.84,0,0,1,.17,1,6.7,6.7,0,0,0,3.11,8.87,4.31,4.31,0,0,0,.86.35,6.7,6.7,0,0,0,5.17-12.3Zm-.79,8.25a3.27,3.27,0,0,1-4.63,0,3.29,3.29,0,0,1,0-4.63,3.27,3.27,0,0,1,4.63,4.63Z"/><path class="cls-1" d="M166.52,110.34a1.74,1.74,0,0,0-2.15.88,27.75,27.75,0,0,1-5.08,7l-.12.12a27.35,27.35,0,0,1-38.51-.12L88.45,86.05A9.14,9.14,0,0,0,82,83.37H74.79a5.73,5.73,0,0,1-4.08-1.69l-5.35-5.35a.86.86,0,0,1-.17-1,6.77,6.77,0,0,0,.24-5.19,5.51,5.51,0,0,0-.36-.78,6.7,6.7,0,0,0-5.92-3.55,6.63,6.63,0,0,0-4.72,2h0a6.72,6.72,0,0,0-1.63,6.86,4.34,4.34,0,0,0,.36.86,6.7,6.7,0,0,0,8.84,3,.84.84,0,0,1,1,.17l5.35,5.35a9.14,9.14,0,0,0,6.49,2.68H82A5.73,5.73,0,0,1,86,88.46l32.21,32.22a30.77,30.77,0,0,0,43.45,0l.5-.5v0a31,31,0,0,0,5.24-7.46A1.71,1.71,0,0,0,166.52,110.34ZM56.84,74.84a3.27,3.27,0,0,1,0-4.63h0a3.28,3.28,0,1,1,0,4.63Z"/><path class="cls-1" d="M240.24,104.27h33.07v3.8H257v37.38h-4.14V108.07H240.24Z"/><path class="cls-1" d="M268.74,117.62h4.09l5.46,16.79c.63,1.84,1.15,3.73,1.72,6,.46-2.25,1.38-5.06,1.67-6l5.52-16.79h4.08l5.47,16.79c.52,1.49,1.2,3.91,1.72,6,.58-2.3.69-3,1.67-6l5.52-16.79h4.14l-9.43,27.83h-3.85L290.77,128a48.13,48.13,0,0,1-1.5-5.47c-.4,1.5-.86,3.17-1.61,5.47l-5.75,17.48h-4Z"/><path class="cls-1" d="M313,131.53c0-8.68,5.4-14.66,13.34-14.66,7.53,0,12.65,5.35,12.65,13.22v2H316.87c.29,6.78,3.85,10.69,9.83,10.69,4.55,0,7.48-2,8.51-5.63H339c-1.5,5.86-5.81,9-12.36,9C318.48,146.14,313,140.27,313,131.53Zm4-2.36H335c0-5.34-3.45-8.91-8.68-8.91S317.68,123.71,317,129.17Z"/><path class="cls-1" d="M383,145.45V121h-5.58v-3.33H383v-8.8h3.91v8.8h5.57V121h-5.57v24.5Z"/><path class="cls-1" d="M396.85,131.53c0-8.68,5.41-14.66,13.34-14.66,7.54,0,12.65,5.35,12.65,13.22v2H400.71c.28,6.78,3.85,10.69,9.83,10.69,4.54,0,7.47-2,8.51-5.63h3.79c-1.49,5.86-5.8,9-12.36,9C402.32,146.14,396.85,140.27,396.85,131.53Zm4-2.36h18.06c0-5.34-3.45-8.91-8.69-8.91S401.51,123.71,400.82,129.17Z"/><path class="cls-1" d="M360.34,116.87a10.52,10.52,0,0,0-9.54,5.58l-.06-.49v-4.34h-4v27.83h4V130.9c0-6.27,3.22-10.41,8.91-10.41,4.6,0,7.53,2.3,7.53,8.8v16.16h4v-17C371.15,121.41,368,116.87,360.34,116.87Z"/><path class="cls-1" d="M240.24,95V52.47h16.45c10.35,0,16.21,5,16.21,13.8,0,5.52-2.35,9.43-7.07,11.85L273.31,95H263.13l-6.38-14.89h-7.19V95ZM249.56,72h7.07c4.08,0,6.44-2.07,6.44-5.69s-2.24-5.52-6.38-5.52h-7.13Z"/><path class="cls-1" d="M292.45,65.41c9.15,0,15.82,6.09,15.82,15.18s-6.67,15.12-15.82,15.12-15.87-6-15.87-15.12S283.25,65.41,292.45,65.41Zm0,22.37c4.08,0,6.9-2.88,6.9-7.25s-2.82-7.19-6.9-7.19-7,2.88-7,7.19S288.31,87.78,292.45,87.78Z"/><path class="cls-1" d="M367.37,65.41c9.15,0,15.82,6.09,15.82,15.18s-6.67,15.12-15.82,15.12-15.87-6-15.87-15.12S358.17,65.41,367.37,65.41Zm0,22.37c4.09,0,6.9-2.88,6.9-7.25s-2.81-7.19-6.9-7.19-6.95,2.88-6.95,7.19S363.23,87.78,367.37,87.78Z"/><path class="cls-1" d="M382.38,52.47h33.47V61.1H403.77V95h-9.31V61.1H382.38Z"/><path class="cls-1" d="M415,80.59c0-9,6-15.24,14.72-15.24,9,0,14.66,5.92,14.66,15.3v2.24L423.55,83c.52,3.79,2.65,5.57,6.56,5.57,3.33,0,5.69-1.21,6.32-3.27h8.11c-1,6.38-6.73,10.46-14.61,10.46C421.25,95.77,415,89.45,415,80.59Zm8.63-3h12c0-3.05-2.25-5-5.81-5S424.36,74.09,423.67,77.54Z"/><path class="cls-1" d="M463.86,65.35c-8.22,0-13.57,4.26-13.57,10.75h7.36c0-2.58,2-4,5.75-4,3.16,0,4.89,1.49,4.89,4.31v.46l-8.05.63c-6.9.52-10.64,3.8-10.64,9.09,0,5.64,3.79,9.2,9.89,9.2,4.09,0,7.7-1.7,8.85-4.13V95h8.57V78.23C476.91,70,472.2,65.35,463.86,65.35Zm-1.27,23.87c-2.7,0-4-1-4-3,0-1.84,1.38-2.7,5.23-3l4.48-.4v1.55C468.34,87.55,466,89.22,462.59,89.22Z"/><path class="cls-1" d="M519.69,65.35c-4.14,0-7.53,2-9,5.06a9.28,9.28,0,0,0-8.74-5.06,10.05,10.05,0,0,0-8.39,3.91v-3h-8.86V95h8.86V79.61c0-4.83,2.59-6.21,5.12-6.21,2.81,0,4.65,1.73,4.65,5.29V95h8.86V79.61c0-4.89,2.53-6.27,5.06-6.27,2.82,0,4.71,1.73,4.71,5.35V95h8.86V76.22C530.79,69.66,527.11,65.35,519.69,65.35Z"/><path class="cls-1" d="M333.33,65.29c-4.14,0-7.93,1.73-9.66,4.32V51.47h-8.85V95h8.85V91.43c1.58,2.6,5,4.34,9,4.34,8.17,0,13.86-5.92,13.86-14.84C346.5,71.56,341.38,65.29,333.33,65.29Zm-2.58,22.37c-4.14,0-7-2.87-7-7.19s2.88-7.18,7-7.18,6.84,2.93,6.84,7.18S334.94,87.66,330.75,87.66Z"/></g><g id="Color"><path class="cls-1" d="M185.29,136l-2.78-2.78a13.51,13.51,0,0,1-4-9.82l-6-6a38.43,38.43,0,0,1-7.06,9.27c-15.09,14.56-39.26,13.85-54.09-1l-.27-.27,0,0-5.74-5.69,0,0h0L91.24,105.5a47.78,47.78,0,0,0,4.49,14.7,5.94,5.94,0,0,1-.76,6.43h0l-5.17,6.25a3.3,3.3,0,0,0-.34.49,3.51,3.51,0,0,0-.28.74s0,.07,0,.1A3.08,3.08,0,0,0,90,137l9.82,9.82L101,148l.19.18,0,0a4.15,4.15,0,0,0,.43.3,3.07,3.07,0,0,0,3.48-.3l2.5-2.07,3.68-3a5.66,5.66,0,0,1,6-.75l0,0,1.34.64h0c.55.26,1.11.5,1.67.74l1.71.66h0c.47.18.94.34,1.41.5h0a5.62,5.62,0,0,1,3.72,4.76l.45,4.79.3,3.23a3.07,3.07,0,0,0,2.67,2.75h.13l.26,0h15.61a3.07,3.07,0,0,0,2.57-1.39.35.35,0,0,1,.05-.08,3.28,3.28,0,0,0,.33-.74c0-.09.05-.19.07-.28s0-.19,0-.29l.76-8.08c0-.12,0-.24.05-.37v0a5.5,5.5,0,0,1,3.66-4.3c1.07-.36,2.12-.75,3.16-1.18s2.07-.9,3.08-1.41a5.51,5.51,0,0,1,5.63.46l0,0a3.4,3.4,0,0,1,.3.23l6.25,5.17a3.29,3.29,0,0,0,1.24.62l.09,0a3.06,3.06,0,0,0,2.79-.84l8.46-8.45A2.58,2.58,0,0,0,185.29,136Z"/><path class="cls-1" d="M187.88,61.23l-9.83-9.82-1.22-1.23-.19-.17,0,0a3,3,0,0,0-.43-.3,3.07,3.07,0,0,0-3.48.3l-2.5,2.07-3.7,3.06a5.54,5.54,0,0,1-6,.74l0,0-1.34-.64h0c-.55-.25-1.11-.5-1.68-.73l-1.7-.67h0c-.46-.18-.93-.34-1.4-.5h0a5.65,5.65,0,0,1-3.73-4.79l-.45-4.76-.3-3.23a3.06,3.06,0,0,0-2.67-2.75l-.09,0H131.13a3.07,3.07,0,0,0-2.57,1.39.56.56,0,0,0-.05.08,3.09,3.09,0,0,0-.33.74,2.29,2.29,0,0,0-.07.28c0,.09,0,.19,0,.29l-.76,8.07c0,.13,0,.25,0,.37v0a5.5,5.5,0,0,1-3.66,4.31c-1.07.35-2.12.75-3.17,1.18s-2.07.9-3.08,1.4a5.47,5.47,0,0,1-5.62-.45l0,0-.29-.23L105.16,50a2.56,2.56,0,0,0-.48-.33,3.05,3.05,0,0,0-.76-.29l-.09,0a3.08,3.08,0,0,0-2.79.83L93.12,58.1a2.57,2.57,0,0,0,0,3.63l3.36,3.35a13.55,13.55,0,0,1,3.91,10.86l4.93,4.93a38.07,38.07,0,0,1,7.07-9.28c15.09-14.56,39.26-13.84,54.09,1l6,6h0l14.15,14.15a47.88,47.88,0,0,0-4.44-14.82,6,6,0,0,1,.78-6.4l5.1-6.16a2.7,2.7,0,0,0,.33-.5,2.78,2.78,0,0,0,.29-.74s0-.06,0-.09A3.08,3.08,0,0,0,187.88,61.23Z"/></g></svg>