<svg id="Laag_1" data-name="Laag 1" xmlns="http://www.w3.org/2000/svg" viewBox="0 0 315.91 149.09"><defs><style>.cls-1{fill:#202a44;}</style></defs><path class="cls-1" d="M205.52,59.5h.41a59.27,59.27,0,0,0-114.66,0h.22a15.67,15.67,0,0,1,3.79.46,55.28,55.28,0,0,1,106.62,0A15.4,15.4,0,0,1,205.52,59.5Z"/><polygon class="cls-1" points="107.31 84.58 107.31 64.74 110.98 64.74 110.98 81.12 118.87 81.12 118.87 84.58 107.31 84.58"/><path class="cls-1" d="M137,84.58l-1.65-4.34h-7.76l-1.64,4.34H122l7.65-19.84h3.55l7.63,19.84Zm-3-7.82L131.42,70l-2.56,6.8Z"/><path class="cls-1" d="M155.76,84.58l-4-7.39H149v7.39h-3.67V64.74h7c4.09,0,6.74,2.43,6.74,6.18a6.18,6.18,0,0,1-3.48,5.68l4.5,8Zm-3.51-10.83a2.68,2.68,0,0,0,3-2.83c0-1.72-1.17-2.75-3.12-2.75H149v5.58Z"/><path class="cls-1" d="M177.39,84.58V64.74h6.68c3.72,0,6.32,2.24,6.32,5.45a5,5,0,0,1-1.72,3.93A5.22,5.22,0,0,1,191,78.61c0,3.52-2.64,6-6.42,6Zm6.84-3.4c1.38,0,3-.46,3-2.63S185.21,76,184,76h-3v5.19ZM184,72.66c1.65,0,2.68-.89,2.68-2.31s-1-2.18-2.6-2.18h-3v4.49Z"/><path class="cls-1" d="M233.32,84.58l-1.65-4.34h-7.76l-1.65,4.34h-3.89L226,64.74h3.55l7.62,19.84Zm-3-7.82L227.79,70l-2.56,6.8Z"/><polygon class="cls-1" points="244.1 84.58 244.1 68.22 238.51 68.22 238.51 64.74 253.37 64.74 253.37 68.22 247.77 68.22 247.77 84.58 244.1 84.58"/><path class="cls-1" d="M91.47,84.92a10.26,10.26,0,1,1,10.26-10.26A10,10,0,0,1,91.47,84.92Zm0-17A6.72,6.72,0,1,0,98,74.66,6.38,6.38,0,0,0,91.49,67.94Z"/><path class="cls-1" d="M205.5,84.92a10.26,10.26,0,1,1,10.26-10.26A10,10,0,0,1,205.5,84.92Zm0-17A6.72,6.72,0,1,0,212,74.66,6.38,6.38,0,0,0,205.52,67.94Z"/><path class="cls-1" d="M187.17,88.92h-9.78v2.4H181V102h2.52V91.32h3.63v-2.4Z"/><path class="cls-1" d="M205.38,88.92h-2.66l-.11.44-2,8.19-2.14-8.2-.11-.43H195.8l-.11.43-2.14,8.2-2-8.19-.1-.44h-2.67l.18.72,3,11.88.11.43h2.67l.11-.42,2.17-8.15,2.16,8.15.11.42h2.67l.11-.43,3-11.88.18-.72Z"/><path class="cls-1" d="M230.07,88.92h-2.5v8.31l-5.26-8-.17-.26h-2.29v13h2.52V93.66l5.19,8,.17.26h2.34v-13Z"/><path class="cls-1" d="M242.65,88.92h-9.78v2.4h3.63V102H239V91.32h3.63v-2.4Z"/><path class="cls-1" d="M253.36,88.92h-7.91v13h7.91V99.57H248v-3h4.65V94.14H248V91.32h5.39v-2.4Z"/><path class="cls-1" d="M216.14,88.92h-7.92v13h7.92V99.57h-5.4v-3h4.65V94.14h-4.65V91.32h5.4v-2.4Z"/><path class="cls-1" d="M66.78,84.35a20.71,20.71,0,0,1,9.5-2.64A5.52,5.52,0,0,0,77,79c0-4.66-3.69-5.61-6.39-6.3-2.39-.61-3.75-1-3.75-2.61,0-1.36,1.1-2.18,2.94-2.18,1.41,0,3.09.45,3.09,2.6v.77h3.72v-.77c0-4.18-3.52-6.08-6.79-6.08-4.35,0-6.62,2.85-6.62,5.66,0,4.49,3.38,5.32,6.11,6,2.55.62,4,1.07,4,3,0,1.71-1.81,2.31-3.35,2.31-2.19,0-3.72-1.25-3.72-3v-.78H62.55v.78A6.4,6.4,0,0,0,66.78,84.35Z"/><path class="cls-1" d="M117.86,96.64h.08a13.25,13.25,0,0,1,3.74.56c1.39-.51,2.95-1,4.64-1.58a18,18,0,0,0-8.34-2.2h-.14c-4,0-6.73,1.84-9.32,3.6s-5.18,3.51-9.37,3.51c-4.51,0-7.11-2.8-10.11-6-3.15-3.41-6.41-6.92-12.08-6.93h0c-8.61,0-13.43,7.36-13.63,7.67l-.41.64.64.41L65,97.2l.64.41L66,97c0-.06,4.1-6.19,10.92-6.19,4.27,0,6.8,2.73,9.72,5.89,3.23,3.48,6.56,7.08,12.48,7.08,5.18,0,8.37-2.16,11.18-4.07C112.72,98.05,114.79,96.65,117.86,96.64Z"/><path class="cls-1" d="M192.3,108.36A55.24,55.24,0,0,1,106,109.73a34.47,34.47,0,0,0,6.45-3.24c.48-.29.93-.57,1.35-.81a83.67,83.67,0,0,1,30.75-9.13c8.46-.67,16.28-1.15,21.46-1.44a.39.39,0,0,1,.33.62L165.41,97l-.12.18-1,1.63H141.63a5.07,5.07,0,0,0-.55,0,79.87,79.87,0,0,0-10.61,2.26,33.3,33.3,0,0,0,9,.93h33.77V98.79h-5.88l.16-.24,1.49-2a2.57,2.57,0,0,0-2.22-4.09c-4.39.23-11.06.63-18.56,1.19h0l-2.2.1a.34.34,0,0,1-.32-.45l.14-.36h0a2.47,2.47,0,1,0-4.76-1h0a2.07,2.07,0,0,1-1.44,1.88l-4.28,1.33-3.66.93h0a85.18,85.18,0,0,0-19.26,7.34c-3,1.71-6.7,4.48-12.56,5,.58.84,1.19,1.66,1.81,2.46h0a59.23,59.23,0,0,0,95.52-2.45Z"/></svg>